<?xml version="1.0" encoding="UTF-8"?>
<svg version="1.1" xmlns="http://www.w3.org/2000/svg" width="1024" height="1024">
<path d="M0 0 C0 0.66 0 1.32 0 2 C0.66 2 1.32 2 2 2 C2 1.34 2 0.68 2 0 C2.99 0.33 3.98 0.66 5 1 C6.89470816 1.0685495 8.7916834 1.08480372 10.6875 1.0625 C11.68136719 1.05347656 12.67523437 1.04445313 13.69921875 1.03515625 C14.45847656 1.02355469 15.21773437 1.01195313 16 1 C16 1.33 16 1.66 16 2 C16.78197754 2.08975098 17.56395508 2.17950195 18.36962891 2.27197266 C37.1858465 4.46970687 55.60684648 7.48833403 74.13671875 11.43115234 C76.37679715 11.87618838 78.64002803 12.2050035 80.90625 12.48828125 C84.61068658 13.10101003 87.57506688 14.47160965 91 16 C93.82899962 16.98438122 96.68931311 17.84214457 99.5625 18.6875 C100.29146484 18.91244141 101.02042969 19.13738281 101.77148438 19.36914062 C105.14181227 20.36719452 107.79122082 21.00268605 111.33984375 20.95703125 C114 21 114 21 115.3347168 22.36083984 C117.46854285 24.46119289 119.51393855 25.19592932 122.3046875 26.26953125 C123.35793213 26.68090332 124.41117676 27.09227539 125.49633789 27.51611328 C126.61129639 27.9439209 127.72625488 28.37172852 128.875 28.8125 C137.73010338 32.27454099 146.4547668 35.82082034 155 40 C155.66 39.34 156.32 38.68 157 38 C157 39.32 157 40.64 157 42 C161.32564205 43.58255197 165.428721 44.45144652 170 45 C169.67 45.99 169.34 46.98 169 48 C169.64324219 48.22816406 170.28648437 48.45632812 170.94921875 48.69140625 C184.53049305 54.51692084 197.04774634 63.40081704 209 72 C209.76344727 72.5455957 210.52689453 73.09119141 211.31347656 73.65332031 C224.03233181 82.76910042 236.55854333 92.14927695 247.44921875 103.4453125 C249.12396958 105.12428184 250.88192726 106.65037291 252.6875 108.1875 C261.09908386 115.45353742 268.82750677 123.51940862 276 132 C276.94692274 133.09591167 277.89494183 134.19087652 278.84375 135.28515625 C283.94966068 141.18641992 288.98842869 147.09911458 293.6953125 153.328125 C295.04008805 155.12170908 295.04008805 155.12170908 297 157 C298.02263229 158.5688109 299.01853127 160.15511331 300 161.75 C302.68925608 166.04066113 305.54314143 170.1235528 308.5625 174.1875 C338.79130144 215.66545705 358.23768081 265.77381973 369.5 315.5 C369.74024902 316.55719238 369.74024902 316.55719238 369.98535156 317.63574219 C370.73971058 321.14499934 371.16568551 324.41014721 371 328 C371.66 328.33 372.32 328.66 373 329 C373.36132812 331.03808594 373.36132812 331.03808594 373.53125 333.734375 C373.84432776 337.98838777 374.22621792 342.21582585 374.71875 346.453125 C380.08982294 393.12601409 378.23277369 439.05070066 368 485 C367.77973145 485.98967773 367.55946289 486.97935547 367.33251953 487.99902344 C360.22884145 519.29235043 349.11821496 549.67545955 334 578 C333.58782227 578.78036621 333.17564453 579.56073242 332.75097656 580.36474609 C326.75116689 591.6828677 320.33964455 602.50474131 313 613 C312.03111657 614.40355374 311.06237153 615.80720301 310.09375 617.2109375 C304.46858587 625.31339695 298.63251935 633.19885031 292.47265625 640.90234375 C290.32124501 643.59755562 288.21634354 646.320717 286.125 649.0625 C283.61545125 652.2916113 280.97024668 655.17826565 278 658 C274.45806551 661.44782511 271.02089004 664.92486253 267.8125 668.6875 C260.46353677 677.17086694 252.49226569 684.81756802 243.70703125 691.79296875 C240.90720847 694.07565255 238.26926031 696.47692203 235.625 698.9375 C226.56402627 707.25197306 216.68781866 714.35265736 206.484375 721.1875 C203.92814669 722.76121482 203.92814669 722.76121482 203 725 C201.68911207 725.81361707 200.33918925 726.56501856 198.97265625 727.28125 C195.08483428 729.37887984 191.37426925 731.63728991 187.67333984 734.04589844 C137.65641224 766.57492452 80.70369917 785.78947842 21.5 792.25 C20.76531494 792.33024414 20.03062988 792.41048828 19.27368164 792.49316406 C14.16529251 792.99970328 9.13294527 793.06062534 4 793 C3.67 793.66 3.34 794.32 3 795 C-3.96003447 795.02526838 -10.9200572 795.04283222 -17.88012695 795.05493164 C-20.24992312 795.05997341 -22.61971615 795.06680665 -24.98950195 795.07543945 C-28.38754039 795.0875119 -31.78553785 795.09322971 -35.18359375 795.09765625 C-36.25024765 795.10281754 -37.31690155 795.10797882 -38.4158783 795.11329651 C-39.39681961 795.11337204 -40.37776093 795.11344757 -41.38842773 795.11352539 C-42.25668686 795.115746 -43.12494598 795.11796661 -44.01951599 795.12025452 C-46 795 -46 795 -47 794 C-49.36961345 793.69732894 -51.72340606 793.4514384 -54.1015625 793.23828125 C-55.62395186 793.0916828 -57.14624632 792.94409627 -58.66845703 792.7956543 C-59.4759137 792.71761566 -60.28337036 792.63957703 -61.11529541 792.55917358 C-79.34670516 790.76724668 -97.10883395 788.00912248 -115 784 C-116.702771 783.62367432 -116.702771 783.62367432 -118.43994141 783.23974609 C-155.64584396 774.83422837 -192.98834784 759.39330985 -225.21484375 738.99609375 C-226.95037535 737.8375785 -226.95037535 737.8375785 -229 738 C-229.515625 737.46375 -230.03125 736.9275 -230.5625 736.375 C-234.00380396 733.0219346 -237.96605584 730.58586164 -242 728 C-242.66 728.33 -243.32 728.66 -244 729 C-244.33 728.01 -244.66 727.02 -245 726 C-246.91666667 724.83333333 -246.91666667 724.83333333 -249 724 C-251 723 -251 723 -252.78515625 721.19140625 C-255.18459813 718.81735529 -257.70642864 716.92002806 -260.4375 714.9375 C-267.21669936 709.91311171 -273.61686438 704.51462443 -280 699 C-280.71800781 698.38382813 -281.43601562 697.76765625 -282.17578125 697.1328125 C-295.20604722 685.85610199 -308.22907727 674.08239738 -319.375 660.90234375 C-321.29772282 658.65146391 -323.30636031 656.48930088 -325.3125 654.3125 C-330.11390773 648.98937734 -334.46597117 643.36463144 -338.76806641 637.63916016 C-339.96930464 636.04084199 -341.17791967 634.44807637 -342.38671875 632.85546875 C-354.82796306 616.40091982 -366.04948227 599.34336892 -375.82226562 581.17480469 C-376.93029192 579.12872297 -378.06263179 577.09842476 -379.203125 575.0703125 C-403.76706595 530.83091446 -416.74954028 480.17131431 -421 430 C-421.07202637 429.1538916 -421.14405273 428.3077832 -421.21826172 427.43603516 C-427.06557283 354.64709337 -411.24533592 279.42552758 -377 215 C-376.50709473 214.06349609 -376.01418945 213.12699219 -375.50634766 212.16210938 C-373.82676125 208.97763351 -372.13447115 205.80024303 -370.4375 202.625 C-369.90721191 201.62581543 -369.37692383 200.62663086 -368.83056641 199.59716797 C-365.2980856 193.05799625 -361.34312308 187.02431033 -357 181 C-355.69113375 179.0531201 -354.39506792 177.09740962 -353.125 175.125 C-352.55007813 174.24070312 -351.97515625 173.35640625 -351.3828125 172.4453125 C-349.91288038 170.1210541 -349.91288038 170.1210541 -349.4921875 167.7421875 C-349.32976562 167.16726563 -349.16734375 166.59234375 -349 166 C-348.01 165.67 -347.02 165.34 -346 165 C-344.55473264 163.26451831 -343.1912778 161.46024037 -341.875 159.625 C-341.07222463 158.5246441 -340.26748863 157.4257163 -339.4609375 156.328125 C-339.05198242 155.77060547 -338.64302734 155.21308594 -338.22167969 154.63867188 C-332.93132997 147.54258328 -327.09103215 140.89883606 -321.140625 134.35546875 C-319.11634619 132.12802328 -317.11318672 129.8846828 -315.125 127.625 C-314.32449219 126.71621094 -314.32449219 126.71621094 -313.5078125 125.7890625 C-312.44390627 124.52670745 -311.42940117 123.22191069 -310.453125 121.890625 C-309 120 -309 120 -306.625 118.125 C-304.17738914 116.14360073 -302.38839291 114.05712638 -300.421875 111.6171875 C-298.28204973 109.18343018 -295.84225938 107.15735192 -293.37890625 105.05859375 C-289.97721614 102.11493088 -286.68549445 99.05526016 -283.38842773 95.99536133 C-273.6463063 87 -273.6463063 87 -271 87 C-271 86.34 -271 85.68 -271 85 C-269.32479602 83.59946911 -267.58076908 82.28102288 -265.8125 81 C-264.71018357 80.19504185 -263.60864848 79.38901285 -262.5078125 78.58203125 C-261.93192383 78.16131348 -261.35603516 77.7405957 -260.76269531 77.30712891 C-259.00590108 76.00437595 -257.27701032 74.6721449 -255.5546875 73.32421875 C-254.99160889 72.88400391 -254.42853027 72.44378906 -253.84838867 71.99023438 C-252.26606125 70.74912029 -250.68571252 69.50548476 -249.10546875 68.26171875 C-246.45522936 66.3315444 -243.79472878 64.66192688 -240.92993164 63.07397461 C-237.11067687 60.94862335 -233.37174827 58.68737072 -229.625 56.4375 C-228.80644531 55.95603516 -227.98789062 55.47457031 -227.14453125 54.97851562 C-226.36722656 54.50994141 -225.58992187 54.04136719 -224.7890625 53.55859375 C-224.08475098 53.13892334 -223.38043945 52.71925293 -222.65478516 52.28686523 C-220.6944347 51.00790358 -220.6944347 51.00790358 -220 48 C-219.34 48.33 -218.68 48.66 -218 49 C-215.88911504 48.11258922 -215.88911504 48.11258922 -213.5703125 46.7265625 C-212.69246094 46.2315625 -211.81460938 45.7365625 -210.91015625 45.2265625 C-209.99105469 44.69804687 -209.07195312 44.16953125 -208.125 43.625 C-206.31750312 42.59214464 -204.50768791 41.56333323 -202.6953125 40.5390625 C-201.89109863 40.07709473 -201.08688477 39.61512695 -200.25830078 39.13916016 C-198.13528702 38.06824316 -196.3013557 37.53164138 -194 37 C-192.06810385 36.09998338 -190.13769261 35.19653102 -188.21777344 34.27124023 C-129.98048768 6.51808792 -63.68594707 -0.44858979 0 0 Z M-121 91 C-122.26199219 91.25910156 -123.52398437 91.51820313 -124.82421875 91.78515625 C-131.45937663 93.1621631 -137.57144212 95.8541803 -143.8125 98.4375 C-145.02615234 98.92798828 -146.23980469 99.41847656 -147.49023438 99.92382812 C-153.61577584 102.28688212 -153.61577584 102.28688212 -159.1862793 105.66430664 C-161 107 -161 107 -164 107 C-166.35311152 108.01215432 -166.35311152 108.01215432 -168.91015625 109.421875 C-169.89129395 109.94676514 -170.87243164 110.47165527 -171.88330078 111.01245117 C-172.93243652 111.58584229 -173.98157227 112.1592334 -175.0625 112.75 C-176.13999512 113.33692627 -177.21749023 113.92385254 -178.32763672 114.52856445 C-187.21916148 119.43966534 -195.70516249 124.78120673 -204.01855469 130.61083984 C-205.91193003 131.93825553 -207.81753285 133.24602312 -209.7265625 134.55078125 C-221.13618462 142.43101027 -231.42617839 151.56991614 -241.66796875 160.89453125 C-243.30031015 162.36828671 -244.95038382 163.82252949 -246.61328125 165.26171875 C-247.44214844 165.97972656 -248.27101563 166.69773437 -249.125 167.4375 C-249.87007813 168.07558594 -250.61515625 168.71367187 -251.3828125 169.37109375 C-253.23484982 170.85399332 -253.23484982 170.85399332 -253 173 C-253.598125 173.26296875 -254.19625 173.5259375 -254.8125 173.796875 C-257.12698468 175.06984157 -258.31626502 176.2330258 -260 178.25 C-260.60070312 178.9615625 -261.20140625 179.673125 -261.8203125 180.40625 C-262.53960937 181.2621875 -263.25890625 182.118125 -264 183 C-264.93307973 184.07449645 -265.86811033 185.1473007 -266.8046875 186.21875 C-280.55170472 201.98947356 -292.37179235 218.9891773 -303 237 C-303.57186035 237.96317139 -303.57186035 237.96317139 -304.15527344 238.94580078 C-332.4004613 286.9125481 -345.20141962 342.16847144 -345.3125 397.5 C-345.31617584 398.37188965 -345.31985168 399.2437793 -345.32363892 400.14208984 C-345.36034659 416.79127685 -344.06940558 433.26825522 -341.25 449.6875 C-341.08008545 450.67967529 -340.9101709 451.67185059 -340.73510742 452.6940918 C-331.73395826 503.46152937 -311.53721741 548.72616607 -281 590 C-280.49662109 590.6820752 -279.99324219 591.36415039 -279.47460938 592.06689453 C-278.09616077 593.92650843 -276.70737683 595.77768866 -275.3125 597.625 C-274.52488281 598.66914062 -273.73726563 599.71328125 -272.92578125 600.7890625 C-272.29027344 601.51867187 -271.65476562 602.24828125 -271 603 C-270.34 603 -269.68 603 -269 603 C-268.67515625 603.80050781 -268.67515625 603.80050781 -268.34375 604.6171875 C-266.51052552 607.86796346 -264.04518987 610.42817842 -261.5 613.125 C-260.96536133 613.69686035 -260.43072266 614.2687207 -259.87988281 614.85791016 C-252.58571864 622.62175789 -245.12798284 630.1082663 -237 637 C-236.05640625 637.82113281 -235.1128125 638.64226563 -234.140625 639.48828125 C-199.63802183 669.36760011 -157.96779206 691.74851316 -114 704 C-113.02385742 704.27215332 -112.04771484 704.54430664 -111.04199219 704.82470703 C-107.90666083 705.68913902 -104.76741712 706.53671026 -101.625 707.375 C-100.15208496 707.77005737 -100.15208496 707.77005737 -98.64941406 708.1730957 C-97.72612305 708.4124585 -96.80283203 708.65182129 -95.8515625 708.8984375 C-95.03510254 709.11161621 -94.21864258 709.32479492 -93.37744141 709.54443359 C-91.00576293 710.0855114 -91.00576293 710.0855114 -88.57177734 709.94384766 C-85.41352806 710.01280506 -82.97677495 710.96584756 -80 712 C-77.99695182 712.39226429 -75.9838816 712.73589143 -73.96484375 713.03515625 C-72.82466797 713.20466797 -71.68449219 713.37417969 -70.50976562 713.54882812 C-69.33091797 713.71833984 -68.15207031 713.88785156 -66.9375 714.0625 C-65.78572266 714.23587891 -64.63394531 714.40925781 -63.44726562 714.58789062 C-49.26492825 716.66393665 -35.24609836 717.23852044 -20.9375 717.25 C-20.06071594 717.25100708 -19.18393188 717.25201416 -18.28057861 717.25305176 C-2.68570038 717.24101348 12.55795334 716.32399578 28 714 C28.96454102 713.85546387 29.92908203 713.71092773 30.92285156 713.56201172 C49.4954658 710.67343599 68.36346642 706.58681513 86 700 C86.60207275 699.77675049 87.20414551 699.55350098 87.82446289 699.32348633 C123.47362006 686.052381 156.73203998 668.45230526 186 644 C187.48886719 642.78763672 187.48886719 642.78763672 189.0078125 641.55078125 C196.53584647 635.33332729 203.53144194 628.64972803 210.4375 621.75 C211.27780762 620.91049805 212.11811523 620.07099609 212.98388672 619.20605469 C222.07760386 610.03077142 230.17062409 600.2548487 238 590 C238.50837402 589.33742188 239.01674805 588.67484375 239.54052734 587.9921875 C261.71378406 558.87984296 277.43234388 526.08356925 287.875 491.125 C288.22691406 489.9596875 288.57882812 488.794375 288.94140625 487.59375 C294.01815411 473.47938658 294.01815411 473.47938658 294 459 C294.66 459 295.32 459 296 459 C296.65311294 454.60521709 297.2961114 450.20900804 297.9375 445.8125 C298.11990234 444.58595703 298.30230469 443.35941406 298.49023438 442.09570312 C300.66130498 427.13505295 301.24034871 412.40482782 301.25 397.3125 C301.25067474 396.36046692 301.25134949 395.40843384 301.25204468 394.42755127 C301.23482798 379.08731126 300.58566521 364.1532594 298 349 C297.82839355 347.97922363 297.65678711 346.95844727 297.47998047 345.90673828 C292.32472365 316.15920184 283.36552468 287.22917742 270.5625 259.875 C270.14959717 258.98586914 269.73669434 258.09673828 269.3112793 257.18066406 C268.92109619 256.3759668 268.53091309 255.57126953 268.12890625 254.7421875 C267.78931885 254.0394873 267.44973145 253.33678711 267.09985352 252.61279297 C266.01171205 250.66745369 266.01171205 250.66745369 263 250 C262.88978516 248.76056641 262.88978516 248.76056641 262.77734375 247.49609375 C261.79854917 243.09397743 259.89949033 239.87970095 257.5625 236.0625 C256.89033447 234.94597046 256.89033447 234.94597046 256.20458984 233.80688477 C246.60017684 217.98933365 236.14471862 202.39903529 223.6015625 188.74609375 C221.61889636 186.58450408 219.81704468 184.30158993 218 182 C214.6060888 177.82653497 211.28216252 174.29397117 207 171 C205.31126121 169.35570171 203.64694485 167.68615782 202 166 C196.32081223 160.14022214 196.32081223 160.14022214 190 155 C189.34 155 188.68 155 188 155 C188 154.34 188 153.68 188 153 C185.99627501 151.24597934 183.98726446 149.61478775 181.875 148 C180.930802 147.26958496 180.930802 147.26958496 179.9675293 146.52441406 C169.97063283 138.84309861 159.72451108 131.63246359 149 125 C148.01902344 124.37609375 147.03804687 123.7521875 146.02734375 123.109375 C119.16972306 106.2027191 89.91732213 94.23172415 59.3125 86 C58.5405127 85.79197754 57.76852539 85.58395508 56.97314453 85.36962891 C54.01212027 84.61023833 51.29669554 84 48.23046875 84 C46 84 46 84 44.171875 83.0625 C8.79735677 65.75698029 -88.7889866 69.52599106 -121 91 Z " fill="#FBFCFC" transform="translate(534,115)"/>
<path d="M0 0 C7.6642372 4.5640045 15.36586625 9.05298275 23.1262207 13.45166016 C24.0766626 13.99290527 25.02710449 14.53415039 26.00634766 15.09179688 C26.88895264 15.58953613 27.77155762 16.08727539 28.6809082 16.60009766 C29.4464502 17.03241699 30.21199219 17.46473633 31.00073242 17.91015625 C33.36615051 19.13623215 35.76337748 20.12705561 38.2512207 21.07666016 C38.2512207 21.73666016 38.2512207 22.39666016 38.2512207 23.07666016 C38.90864258 23.31126953 39.56606445 23.54587891 40.2434082 23.78759766 C44.14650921 25.46035523 47.71745991 27.55432895 51.3762207 29.70166016 C52.19316406 30.17748535 53.01010742 30.65331055 53.85180664 31.14355469 C61.67280885 35.71038389 69.45025583 40.35082959 77.23309326 44.98226929 C86.21742546 50.32521365 95.27714422 55.52142598 104.39306641 60.63696289 C110.12452742 63.85830233 115.79778531 67.15257167 121.41796875 70.5637207 C127.17680321 74.05318728 132.99358009 77.44065558 138.8137207 80.82666016 C146.64263254 85.38265446 154.45778342 89.96023747 162.2512207 94.57666016 C171.13015976 99.83582972 180.03627749 105.04708616 188.95825195 110.23291016 C193.53683626 112.89692826 198.10863945 115.57178889 202.66137695 118.27978516 C203.43360596 118.73901367 204.20583496 119.19824219 205.00146484 119.67138672 C217.97777177 127.77682596 226.63415879 139.0985183 230.2512207 154.07666016 C231.5977694 169.01395621 228.68893428 182.0973401 219.2512207 194.07666016 C214.8712662 198.94826367 210.23548538 202.7454755 204.6887207 206.20166016 C203.59841553 206.89424927 203.59841553 206.89424927 202.48608398 207.60083008 C194.74755508 212.47459167 186.85121114 217.08527497 178.9621582 221.70947266 C173.35555718 225.00242014 167.79856618 228.37257679 162.2512207 231.76416016 C153.21382218 237.28566922 144.14735281 242.75670088 135.0637207 248.20166016 C134.41783997 248.58888245 133.77195923 248.97610474 133.10650635 249.37506104 C127.03248309 253.01627543 120.95665293 256.65446769 114.88012695 260.29150391 C113.29539101 261.24055481 111.71075188 262.18976742 110.1262207 263.13916016 C109.36245117 263.59677734 108.59868164 264.05439453 107.81176758 264.52587891 C101.1627711 268.51637309 94.53800328 272.54647116 87.91305542 276.57669067 C79.17702158 281.89091063 70.43345445 287.18618003 61.60522461 292.34643555 C47.60680917 300.53692515 33.73701755 308.94754326 19.88330078 317.37988281 C9.77322904 323.53356397 -0.34643167 329.67113804 -10.51397705 335.72952271 C-12.18354562 336.72525474 -13.85073415 337.72497416 -15.51782227 338.72485352 C-29.49881046 347.02966931 -41.30545186 353.62372518 -57.8425293 353.08447266 C-60.68821621 352.85903847 -60.68821621 352.85903847 -62.7487793 354.07666016 C-62.7487793 353.41666016 -62.7487793 352.75666016 -62.7487793 352.07666016 C-63.29405273 351.91810547 -63.83932617 351.75955078 -64.40112305 351.59619141 C-76.41112071 347.8802776 -84.51213581 342.43578377 -90.5612793 331.20166016 C-95.60886543 321.31321497 -95.0839678 310.02493154 -95.1628418 299.21728516 C-95.18168852 297.5613315 -95.20131379 295.90538654 -95.22166443 294.24945068 C-95.27325205 289.84787701 -95.31293038 285.44627359 -95.34987259 281.04455566 C-95.38178238 277.41680954 -95.42070989 273.78915262 -95.45964146 270.16147614 C-95.74493806 243.46698806 -95.89223459 216.77258732 -95.7487793 190.07666016 C-96.0787793 190.07666016 -96.4087793 190.07666016 -96.7487793 190.07666016 C-96.7487793 188.42666016 -96.7487793 186.77666016 -96.7487793 185.07666016 C-96.4187793 185.07666016 -96.0887793 185.07666016 -95.7487793 185.07666016 C-95.72543737 165.44051983 -95.70779374 145.80438232 -95.69696712 126.16823101 C-95.69180693 117.05119552 -95.68476946 107.93416864 -95.67333984 98.81713867 C-95.6633846 90.87239301 -95.65692386 82.92765359 -95.6546908 74.98290187 C-95.65338513 70.77473829 -95.65030829 66.56659255 -95.64304924 62.35843468 C-95.63627579 58.39981684 -95.63416505 54.44122425 -95.63567162 50.48260117 C-95.63539589 49.02772065 -95.6333986 47.57283931 -95.62957382 46.11796379 C-95.62461601 44.13530458 -95.62638657 42.15263191 -95.62852478 40.16996765 C-95.62760299 39.05920711 -95.62668119 37.94844656 -95.62573147 36.8040266 C-95.6286423 33.98182261 -95.6286423 33.98182261 -96.7487793 31.07666016 C-96.0887793 31.07666016 -95.4287793 31.07666016 -94.7487793 31.07666016 C-95.00014648 29.59552734 -95.00014648 29.59552734 -95.2565918 28.08447266 C-97.1924398 14.36819734 -94.61913245 0.61810191 -86.6237793 -10.79833984 C-60.80020574 -41.27127697 -25.84874915 -15.41107631 0 0 Z " fill="#FDFDFD" transform="translate(480.748779296875,347.92333984375)"/>
<path d="M0 0 C1.09542614 3.28627843 0.84094181 3.83232984 0 7 C-0.08884815 8.78653268 -0.12376562 10.57607046 -0.12304783 12.36481094 C-0.12503888 13.45959456 -0.12702993 14.55437817 -0.12908131 15.68233705 C-0.12616847 16.88466155 -0.12325563 18.08698605 -0.12025452 19.32574463 C-0.12110894 20.60323066 -0.12196337 21.8807167 -0.12284368 23.19691443 C-0.12508251 26.74517937 -0.12107569 30.29341419 -0.11606562 33.84167528 C-0.11175256 37.66713492 -0.11320816 41.49259282 -0.1139679 45.3180542 C-0.11449259 51.94672295 -0.1113515 58.57538188 -0.10573006 65.20404816 C-0.09760765 74.78802077 -0.09499907 84.37198862 -0.09374207 93.9559643 C-0.09155272 109.50482525 -0.08489579 125.05368096 -0.07543945 140.60253906 C-0.06626232 155.70800755 -0.05918296 170.81347461 -0.05493164 185.91894531 C-0.05453756 187.3152829 -0.05453756 187.3152829 -0.05413551 188.73982933 C-0.05283048 193.40977702 -0.05156677 198.07972471 -0.05032361 202.74967241 C-0.03995463 241.49978528 -0.02233948 280.24989229 0 319 C-2.09559642 315.16225699 -2.27280355 312.33332601 -2.31884766 307.93212891 C-2.33391184 306.87043488 -2.33391184 306.87043488 -2.34928036 305.78729248 C-2.38024518 303.43372365 -2.39722678 301.08027154 -2.4140625 298.7265625 C-2.43287901 297.06203311 -2.45250253 295.39751266 -2.47288513 293.73300171 C-2.52478114 289.28202103 -2.56428968 284.83101068 -2.60109329 280.37988281 C-2.63286714 276.71843248 -2.67183679 273.05707382 -2.71086216 269.39569473 C-2.99539619 242.59760619 -3.14401192 215.79951104 -3 189 C-3.33 189 -3.66 189 -4 189 C-4 187.35 -4 185.7 -4 184 C-3.67 184 -3.34 184 -3 184 C-2.97665807 164.36385968 -2.95901445 144.72772216 -2.94818783 125.09157085 C-2.94302763 115.97453536 -2.93599016 106.85750848 -2.92456055 97.74047852 C-2.9146053 89.79573286 -2.90814456 81.85099344 -2.90591151 73.90624171 C-2.90460583 69.69807813 -2.90152899 65.48993239 -2.89426994 61.28177452 C-2.8874965 57.32315669 -2.88538576 53.36456409 -2.88689232 49.40594101 C-2.88661659 47.95106049 -2.8846193 46.49617915 -2.88079453 45.04130363 C-2.87583671 43.05864442 -2.87760727 41.07597175 -2.87974548 39.0933075 C-2.87882369 37.98254695 -2.8779019 36.8717864 -2.87695217 35.72736645 C-2.879863 32.90516245 -2.879863 32.90516245 -4 30 C-3.34 30 -2.68 30 -2 30 C-2.25716797 28.53240234 -2.25716797 28.53240234 -2.51953125 27.03515625 C-3.12338225 22.78682402 -2.9645836 18.7076239 -2.6875 14.4375 C-2.65205078 13.70853516 -2.61660156 12.97957031 -2.58007812 12.22851562 C-2.31592807 7.84835569 -1.59987401 4.13355204 0 0 Z " fill="#CACCCC" transform="translate(388,349)"/>
<path d="M0 0 C1.54125475 -0.05482724 3.08309906 -0.09316134 4.625 -0.125 C5.48351562 -0.14820313 6.34203125 -0.17140625 7.2265625 -0.1953125 C10 0 10 0 12.79614258 0.94750977 C15.90493778 1.96877137 18.80291563 2.5560687 22.03515625 3.03515625 C23.74541992 3.28942383 23.74541992 3.28942383 25.49023438 3.54882812 C26.66908203 3.71833984 27.84792969 3.88785156 29.0625 4.0625 C30.21427734 4.23587891 31.36605469 4.40925781 32.55273438 4.58789062 C44.66118196 6.36035547 56.62893699 7.15546998 68.86328125 7.09765625 C70.60027534 7.09553383 70.60027534 7.09553383 72.37236023 7.09336853 C76.01910138 7.08783497 79.66577785 7.07529552 83.3125 7.0625 C85.80663973 7.05747639 88.30078043 7.05291501 90.79492188 7.04882812 C96.86330279 7.03788743 102.93164677 7.02121718 109 7 C109 7.33 109 7.66 109 8 C101.85045225 8.7457046 94.78865283 9.15891659 87.6015625 9.16796875 C86.645914 9.17129715 85.6902655 9.17462555 84.70565796 9.17805481 C82.69391352 9.18308115 80.68216087 9.18546448 78.67041016 9.18530273 C75.66684366 9.18746981 72.66365712 9.20561861 69.66015625 9.22460938 C51.48678006 9.27932765 33.7488207 7.81741329 15.875 4.5 C14.65941406 4.28730469 13.44382812 4.07460938 12.19140625 3.85546875 C3.38930601 2.25953734 3.38930601 2.25953734 0 0 Z " fill="#A8AAAC" transform="translate(438,824)"/>
<path d="M0 0 C0.66 0.33 1.32 0.66 2 1 C1.43152344 1.4846875 0.86304688 1.969375 0.27734375 2.46875 C-0.49480469 3.1390625 -1.26695312 3.809375 -2.0625 4.5 C-2.81660156 5.1496875 -3.57070312 5.799375 -4.34765625 6.46875 C-6.41979399 8.44628351 -8.24503807 10.39623015 -10.1015625 12.5625 C-14.44612885 17.60029192 -19.11620142 22.30227984 -23.81762695 27.00292969 C-25.33249086 28.52002025 -26.83912592 30.04499737 -28.34570312 31.5703125 C-29.309408 32.53694493 -30.27358298 33.50310897 -31.23828125 34.46875 C-32.10493408 35.33951172 -32.97158691 36.21027344 -33.86450195 37.10742188 C-36 39 -36 39 -38 39 C-38 39.66 -38 40.32 -38 41 C-38.66 40.67 -39.32 40.34 -40 40 C-39.52949219 39.46890625 -39.05898437 38.9378125 -38.57421875 38.390625 C-37.95160156 37.68421875 -37.32898438 36.9778125 -36.6875 36.25 C-36.07261719 35.55390625 -35.45773438 34.8578125 -34.82421875 34.140625 C-33.64004201 32.75105572 -32.50051578 31.3216881 -31.41796875 29.8515625 C-30 28 -30 28 -27.625 26.125 C-25.17738914 24.14360073 -23.38839291 22.05712638 -21.421875 19.6171875 C-19.28877008 17.19107366 -16.85768203 15.17058219 -14.40234375 13.078125 C-11.38053461 10.46413725 -8.44006365 7.76770522 -5.5 5.0625 C-4.95915771 4.56532471 -4.41831543 4.06814941 -3.86108398 3.5559082 C-2.57335688 2.37136503 -1.28657556 1.18579381 0 0 Z " fill="#C5C7C9" transform="translate(255,207)"/>
<path d="M0 0 C7.21486296 0.6081206 13.94658393 2.08185901 20.9375 3.9375 C21.97712891 4.20240234 23.01675781 4.46730469 24.08789062 4.74023438 C25.57385742 5.12985352 25.57385742 5.12985352 27.08984375 5.52734375 C28.43357056 5.87913696 28.43357056 5.87913696 29.80444336 6.23803711 C32 7 32 7 34 9 C27.27804735 8.45126917 21.04011181 6.70955816 14.5859375 4.83984375 C11.08262914 3.87485812 11.08262914 3.87485812 7.7265625 4.00390625 C4.04066859 3.9986256 2.54499772 2.54499772 0 0 Z " fill="#AAAAAA" transform="translate(574,196)"/>
<path d="M0 0 C5.79007727 -0.20597113 10.53490165 -0.16062028 16 2 C17.66088045 2.36106097 19.32618981 2.70462173 21 3 C20.34 3.66 19.68 4.32 19 5 C17.02880859 4.85986328 17.02880859 4.85986328 14.6484375 4.3203125 C13.79765625 4.13339844 12.946875 3.94648437 12.0703125 3.75390625 C11.18085938 3.54636719 10.29140625 3.33882812 9.375 3.125 C8.4778125 2.92519531 7.580625 2.72539063 6.65625 2.51953125 C4.43496905 2.02328763 2.21666617 1.51640042 0 1 C0 0.67 0 0.34 0 0 Z " fill="#B6B8B9" transform="translate(438,824)"/>
<path d="M0 0 C2.97 0.33 5.94 0.66 9 1 C8.67 1.99 8.34 2.98 8 4 C5.28368454 3.09456151 2.65228812 2.07525194 0 1 C0 0.67 0 0.34 0 0 Z " fill="#BEBFC0" transform="translate(574,196)"/>
<path d="M0 0 C0.33 0 0.66 0 1 0 C1 2.31 1 4.62 1 7 C0.67 7 0.34 7 0 7 C0 4.69 0 2.38 0 0 Z " fill="#F7F8F7" transform="translate(832,537)"/>
<path d="M0 0 C0.33 0 0.66 0 1 0 C1 2.31 1 4.62 1 7 C0.67 7 0.34 7 0 7 C0 4.69 0 2.38 0 0 Z " fill="#F4F4F4" transform="translate(112,473)"/>
<path d="M0 0 C2.97 0.495 2.97 0.495 6 1 C4.125 1.625 4.125 1.625 2 2 C1.34 1.34 0.68 0.68 0 0 Z " fill="#EFEFEE" transform="translate(600,123)"/>
<path d="M0 0 C0.33 0 0.66 0 1 0 C1 1.98 1 3.96 1 6 C0.67 6 0.34 6 0 6 C0 4.02 0 2.04 0 0 Z " fill="#F2F2F3" transform="translate(112,550)"/>
<path d="M0 0 C0.66 0 1.32 0 2 0 C2.33 1.32 2.66 2.64 3 4 C1.97895449 3.02149805 0.9793879 2.02019573 0 1 C0 0.67 0 0.34 0 0 Z " fill="#F5F5F5" transform="translate(809,393)"/>
<path d="M0 0 C1.485 0.99 1.485 0.99 3 2 C2.34 2.66 1.68 3.32 1 4 C0.67 2.68 0.34 1.36 0 0 Z " fill="#F0F1F1" transform="translate(876,347)"/>
<path d="M0 0 C1.32 0.33 2.64 0.66 4 1 C3.01 1.495 3.01 1.495 2 2 C1.34 1.34 0.68 0.68 0 0 Z " fill="#F1F1F0" transform="translate(424,901)"/>
<path d="M0 0 C0 0.99 0 1.98 0 3 C-0.66 2.67 -1.32 2.34 -2 2 C-1.34 1.34 -0.68 0.68 0 0 Z " fill="#ECEDED" transform="translate(178,731)"/>
<path d="M0 0 C0.99 0.99 1.98 1.98 3 3 C2.01 2.67 1.02 2.34 0 2 C0 1.34 0 0.68 0 0 Z " fill="#F7F8F7" transform="translate(276,729)"/>
<path d="M0 0 C1.32 0.33 2.64 0.66 4 1 C3.01 1.495 3.01 1.495 2 2 C1.34 1.34 0.68 0.68 0 0 Z " fill="#F3F4F4" transform="translate(434,701)"/>
<path d="M0 0 C0.66 1.32 1.32 2.64 2 4 C1.34 3.67 0.68 3.34 0 3 C0 2.01 0 1.02 0 0 Z " fill="#EEF0EF" transform="translate(138,657)"/>
<path d="M0 0 C0.33 0 0.66 0 1 0 C1 1.65 1 3.3 1 5 C0.67 5 0.34 5 0 5 C0 3.35 0 1.7 0 0 Z " fill="#F1F2F3" transform="translate(384,569)"/>
<path d="M0 0 C0.33 0 0.66 0 1 0 C1 1.65 1 3.3 1 5 C0.67 5 0.34 5 0 5 C0 3.35 0 1.7 0 0 Z " fill="#F1F2F2" transform="translate(911,474)"/>
<path d="M0 0 C0.66 0.33 1.32 0.66 2 1 C1.67 1.66 1.34 2.32 1 3 C0.34 2.34 -0.32 1.68 -1 1 C-0.67 0.67 -0.34 0.34 0 0 Z " fill="#F7F7F5" transform="translate(786,346)"/>
<path d="M0 0 C0.33 0.66 0.66 1.32 1 2 C0.34 2.66 -0.32 3.32 -1 4 C-0.67 2.68 -0.34 1.36 0 0 Z " fill="#F3F3F3" transform="translate(169,304)"/>
<path d="M0 0 C0.99 0.33 1.98 0.66 3 1 C2.01 1.33 1.02 1.66 0 2 C0 1.34 0 0.68 0 0 Z " fill="#F1F3F2" transform="translate(592,121)"/>
<path d="M0 0 C1.65 0 3.3 0 5 0 C5 0.33 5 0.66 5 1 C3.35 1 1.7 1 0 1 C0 0.67 0 0.34 0 0 Z " fill="#F2F3F3" transform="translate(456,117)"/>
<path d="M0 0 C1.485 0.99 1.485 0.99 3 2 C1.68 1.67 0.36 1.34 -1 1 C-0.67 0.67 -0.34 0.34 0 0 Z " fill="#F0F0EF" transform="translate(554,115)"/>
<path d="M0 0 C4 1 4 1 4 1 Z " fill="#EDEDED" transform="translate(523,910)"/>
<path d="M0 0 C4 1 4 1 4 1 Z " fill="#EFEFF1" transform="translate(515,910)"/>
<path d="M0 0 C4 1 4 1 4 1 Z " fill="#EEEFF0" transform="translate(499,910)"/>
<path d="M0 0 C0.66 0.33 1.32 0.66 2 1 C1.01 1 0.02 1 -1 1 C-0.67 0.67 -0.34 0.34 0 0 Z " fill="#EFEFEE" transform="translate(740,837)"/>
<path d="M0 0 C4 1 4 1 4 1 Z " fill="#F8F8F8" transform="translate(537,829)"/>
<path d="M0 0 C0.99 0.33 1.98 0.66 3 1 C2.01 1.33 1.02 1.66 0 2 C0 1.34 0 0.68 0 0 Z " fill="#F7F7F6" transform="translate(600,818)"/>
<path d="M0 0 C0.66 0 1.32 0 2 0 C2 0.66 2 1.32 2 2 C1.34 2 0.68 2 0 2 C0 1.34 0 0.68 0 0 Z " fill="#F4F5F4" transform="translate(629,808)"/>
<path d="M0 0 C0.66 0 1.32 0 2 0 C2 0.66 2 1.32 2 2 C1.34 2 0.68 2 0 2 C0 1.34 0 0.68 0 0 Z " fill="#ECECED" transform="translate(179,734)"/>
<path d="M0 0 C0 3 0 3 0 3 Z " fill="#EDEDEC" transform="translate(177,729)"/>
<path d="M0 0 C0.99 0.33 1.98 0.66 3 1 C2.01 1 1.02 1 0 1 C0 0.67 0 0.34 0 0 Z " fill="#F5F5F5" transform="translate(409,699)"/>
<path d="M0 0 C0.66 0 1.32 0 2 0 C1.67 0.99 1.34 1.98 1 3 C0.67 2.01 0.34 1.02 0 0 Z " fill="#F5F7F5" transform="translate(387,677)"/>
<path d="M0 0 C1 4 1 4 1 4 Z " fill="#F6F7F8" transform="translate(824,435)"/>
<path d="M0 0 C1 4 1 4 1 4 Z " fill="#F1F0EF" transform="translate(900,411)"/>
<path d="M0 0 C0.99 0.495 0.99 0.495 2 1 C1.67 1.66 1.34 2.32 1 3 C0.67 2.01 0.34 1.02 0 0 Z " fill="#F0EFEF" transform="translate(893,389)"/>
<path d="M0 0 C0 3 0 3 0 3 Z " fill="#F2F2F3" transform="translate(241,217)"/>
<path d="M0 0 C0.99 0.33 1.98 0.66 3 1 C2.01 1 1.02 1 0 1 C0 0.67 0 0.34 0 0 Z " fill="#F4F4F4" transform="translate(602,205)"/>
<path d="M0 0 C0.99 0.33 1.98 0.66 3 1 C2.01 1.33 1.02 1.66 0 2 C0 1.34 0 0.68 0 0 Z " fill="#EDEFEF" transform="translate(330,154)"/>
<path d="M0 0 C4 1 4 1 4 1 Z " fill="#F3F3F3" transform="translate(400,128)"/>
<path d="M0 0 C3 1 3 1 3 1 Z " fill="#F0F0F0" transform="translate(480,909)"/>
<path d="M0 0 C0.66 0 1.32 0 2 0 C1.67 0.66 1.34 1.32 1 2 C0.67 1.34 0.34 0.68 0 0 Z " fill="#E9EAE8" transform="translate(605,902)"/>
<path d="M0 0 C3 1 3 1 3 1 Z " fill="#EDF0EF" transform="translate(353,878)"/>
<path d="M0 0 C3 1 3 1 3 1 Z " fill="#F5F4F5" transform="translate(500,830)"/>
<path d="M0 0 C3 1 3 1 3 1 Z " fill="#F8F9F9" transform="translate(483,829)"/>
<path d="M0 0 C0.66 0.66 1.32 1.32 2 2 C1.34 2 0.68 2 0 2 C0 1.34 0 0.68 0 0 Z " fill="#F7F7F6" transform="translate(658,795)"/>
<path d="" fill="#EEEFEF" transform="translate(0,0)"/>
<path d="M0 0 C0.33 0.66 0.66 1.32 1 2 C0.34 1.67 -0.32 1.34 -1 1 C-0.67 0.67 -0.34 0.34 0 0 Z " fill="#EEF0EF" transform="translate(164,709)"/>
<path d="M0 0 C3 1 3 1 3 1 Z " fill="#F3F4F4" transform="translate(428,702)"/>
<path d="M0 0 C0.66 0 1.32 0 2 0 C1.67 0.66 1.34 1.32 1 2 C0.67 1.34 0.34 0.68 0 0 Z " fill="#F1F1F1" transform="translate(155,694)"/>
<path d="M0 0 C0.66 0.66 1.32 1.32 2 2 C1.34 2 0.68 2 0 2 C0 1.34 0 0.68 0 0 Z " fill="#F1F1F0" transform="translate(154,691)"/>
<path d="" fill="#F4F4F4" transform="translate(0,0)"/>
<path d="" fill="#F5F5F5" transform="translate(0,0)"/>
<path d="" fill="#F1F1F1" transform="translate(0,0)"/>
<path d="M0 0 C0.66 0 1.32 0 2 0 C1.67 0.66 1.34 1.32 1 2 C0.67 1.34 0.34 0.68 0 0 Z " fill="#F0F1F1" transform="translate(113,568)"/>
<path d="" fill="#F2F2F2" transform="translate(0,0)"/>
<path d="" fill="#F3F4F4" transform="translate(0,0)"/>
<path d="" fill="#F2F3F4" transform="translate(0,0)"/>
<path d="" fill="#F3F3F3" transform="translate(0,0)"/>
<path d="" fill="#F6F6F7" transform="translate(0,0)"/>
<path d="" fill="#F5F6F6" transform="translate(0,0)"/>
<path d="" fill="#F7F8F7" transform="translate(0,0)"/>
<path d="M0 0 C0.66 0 1.32 0 2 0 C1.67 0.66 1.34 1.32 1 2 C0.67 1.34 0.34 0.68 0 0 Z " fill="#F6F7F6" transform="translate(818,418)"/>
<path d="" fill="#F0EFEF" transform="translate(0,0)"/>
<path d="" fill="#F6F7F8" transform="translate(0,0)"/>
<path d="" fill="#F6F5F5" transform="translate(0,0)"/>
<path d="M0 0 C0.99 0.495 0.99 0.495 2 1 C1.01 1.495 1.01 1.495 0 2 C0 1.34 0 0.68 0 0 Z " fill="#F8F8F7" transform="translate(768,320)"/>
<path d="M0 0 C0.66 0.66 1.32 1.32 2 2 C1.34 2 0.68 2 0 2 C0 1.34 0 0.68 0 0 Z " fill="#F6F6F6" transform="translate(700,253)"/>
<path d="M0 0 C0.33 0.66 0.66 1.32 1 2 C0.34 1.67 -0.32 1.34 -1 1 C-0.67 0.67 -0.34 0.34 0 0 Z " fill="#F7F7F7" transform="translate(332,245)"/>
<path d="M0 0 C0.66 0.66 1.32 1.32 2 2 C1.34 2 0.68 2 0 2 C0 1.34 0 0.68 0 0 Z " fill="#F0F0EF" transform="translate(256,202)"/>
<path d="M0 0 C3 1 3 1 3 1 Z " fill="#F6F7F7" transform="translate(568,197)"/>
<path d="M0 0 C3 1 3 1 3 1 Z " fill="#F6F7F6" transform="translate(560,196)"/>
<path d="M0 0 C3 1 3 1 3 1 Z " fill="#F4F5F5" transform="translate(552,195)"/>
<path d="M0 0 C3 1 3 1 3 1 Z " fill="#F7F8F8" transform="translate(548,194)"/>
<path d="M0 0 C0.99 0.495 0.99 0.495 2 1 C1.01 1.495 1.01 1.495 0 2 C0 1.34 0 0.68 0 0 Z " fill="#F0F0F1" transform="translate(742,184)"/>
<path d="M0 0 C0.66 0.66 1.32 1.32 2 2 C1.34 2 0.68 2 0 2 C0 1.34 0 0.68 0 0 Z " fill="#EBEDEC" transform="translate(676,144)"/>
<path d="M0 0 C3 1 3 1 3 1 Z " fill="#F0F0F0" transform="translate(374,136)"/>
<path d="M0 0 C2 1 2 1 2 1 Z " fill="#F0EFEF" transform="translate(545,909)"/>
<path d="M0 0 C2 1 2 1 2 1 Z " fill="#EFF0F1" transform="translate(429,902)"/>
<path d="M0 0 C2 1 2 1 2 1 Z " fill="#EEEEEE" transform="translate(606,899)"/>
<path d="M0 0 C2 1 2 1 2 1 Z " fill="#EFEFEE" transform="translate(628,893)"/>
<path d="M0 0 C2 1 2 1 2 1 Z " fill="#EDF0F0" transform="translate(376,887)"/>
<path d="M0 0 C2 1 2 1 2 1 Z " fill="#ECEDEE" transform="translate(648,886)"/>
<path d="M0 0 C2 1 2 1 2 1 Z " fill="#EDEDED" transform="translate(370,885)"/>
<path d="" fill="#EDEFEE" transform="translate(0,0)"/>
<path d="M0 0 C2 1 2 1 2 1 Z " fill="#EEEEED" transform="translate(668,878)"/>
<path d="M0 0 C2 1 2 1 2 1 Z " fill="#EFEFEE" transform="translate(330,867)"/>
<path d="" fill="#E9E8EA" transform="translate(0,0)"/>
<path d="M0 0 C2 1 2 1 2 1 Z " fill="#EDEDED" transform="translate(291,844)"/>
<path d="M0 0 C2 1 2 1 2 1 Z " fill="#FAF9F9" transform="translate(543,829)"/>
<path d="M0 0 C2 1 2 1 2 1 Z " fill="#F5F6F6" transform="translate(549,828)"/>
<path d="M0 0 C2 1 2 1 2 1 Z " fill="#F8FAF8" transform="translate(576,824)"/>
<path d="M0 0 C2 1 2 1 2 1 Z " fill="#F6F7F7" transform="translate(449,824)"/>
<path d="M0 0 C2 1 2 1 2 1 Z " fill="#F8F8F7" transform="translate(436,821)"/>
<path d="M0 0 C2 1 2 1 2 1 Z " fill="#F6F6F6" transform="translate(420,817)"/>
<path d="M0 0 C2 1 2 1 2 1 Z " fill="#F6F7F6" transform="translate(608,816)"/>
<path d="M0 0 C2 1 2 1 2 1 Z " fill="#F5F5F6" transform="translate(422,816)"/>
<path d="" fill="#EEEDF0" transform="translate(0,0)"/>
<path d="M0 0 C2 1 2 1 2 1 Z " fill="#F1F2F3" transform="translate(680,784)"/>
<path d="M0 0 C2 1 2 1 2 1 Z " fill="#EEEEEE" transform="translate(208,773)"/>
<path d="" fill="#F6F7F5" transform="translate(0,0)"/>
<path d="M0 0 C2 1 2 1 2 1 Z " fill="#EEF0F0" transform="translate(184,741)"/>
<path d="" fill="#ECECEC" transform="translate(0,0)"/>
<path d="M0 0 C2 1 2 1 2 1 Z " fill="#F4F5F5" transform="translate(413,702)"/>
<path d="M0 0 C2 1 2 1 2 1 Z " fill="#F2F4F4" transform="translate(413,700)"/>
<path d="" fill="#F1F2F2" transform="translate(0,0)"/>
<path d="" fill="#EDEDED" transform="translate(0,0)"/>
<path d="" fill="#EFEFF0" transform="translate(0,0)"/>
<path d="" fill="#F4F4F4" transform="translate(0,0)"/>
<path d="" fill="#F0F1F0" transform="translate(0,0)"/>
<path d="" fill="#F1F2F2" transform="translate(0,0)"/>
<path d="" fill="#EFEFF0" transform="translate(0,0)"/>
<path d="" fill="#EFEFEE" transform="translate(0,0)"/>
<path d="" fill="#F2F0F1" transform="translate(0,0)"/>
<path d="" fill="#EDEDED" transform="translate(0,0)"/>
<path d="" fill="#F6F6F5" transform="translate(0,0)"/>
<path d="M0 0 C2 1 2 1 2 1 Z " fill="#F5F6F5" transform="translate(573,622)"/>
<path d="" fill="#F2F4F2" transform="translate(0,0)"/>
<path d="" fill="#F0F1F0" transform="translate(0,0)"/>
<path d="" fill="#F6F5F5" transform="translate(0,0)"/>
<path d="" fill="#F8F8F7" transform="translate(0,0)"/>
<path d="M0 0 C2 1 2 1 2 1 Z " fill="#F4F3F3" transform="translate(603,604)"/>
<path d="" fill="#F4F3F4" transform="translate(0,0)"/>
<path d="M0 0 C2 1 2 1 2 1 Z " fill="#F2F3F3" transform="translate(624,591)"/>
<path d="" fill="#F4F4F5" transform="translate(0,0)"/>
<path d="" fill="#F7F8F8" transform="translate(0,0)"/>
<path d="" fill="#F3F3F3" transform="translate(0,0)"/>
<path d="" fill="#F5F6F5" transform="translate(0,0)"/>
<path d="" fill="#F8FAF9" transform="translate(0,0)"/>
<path d="" fill="#F4F5F5" transform="translate(0,0)"/>
<path d="" fill="#F1F3F2" transform="translate(0,0)"/>
<path d="" fill="#F4F6F5" transform="translate(0,0)"/>
<path d="" fill="#F6F6F8" transform="translate(0,0)"/>
<path d="" fill="#F6F5F6" transform="translate(0,0)"/>
<path d="" fill="#F0F1F1" transform="translate(0,0)"/>
<path d="" fill="#F2F2F2" transform="translate(0,0)"/>
<path d="" fill="#F9F9F8" transform="translate(0,0)"/>
<path d="" fill="#F1F1F1" transform="translate(0,0)"/>
<path d="" fill="#F3F2F3" transform="translate(0,0)"/>
<path d="" fill="#F4F2F4" transform="translate(0,0)"/>
<path d="" fill="#F2F2F2" transform="translate(0,0)"/>
<path d="M0 0 C2 1 2 1 2 1 Z " fill="#F5F3F5" transform="translate(579,404)"/>
<path d="" fill="#F2F3F2" transform="translate(0,0)"/>
<path d="M0 0 C2 1 2 1 2 1 Z " fill="#F7F6F5" transform="translate(805,383)"/>
<path d="" fill="#F7F7F7" transform="translate(0,0)"/>
<path d="" fill="#F2F3F1" transform="translate(0,0)"/>
<path d="M0 0 C2 1 2 1 2 1 Z " fill="#EFF0F0" transform="translate(144,351)"/>
<path d="" fill="#F5F4F4" transform="translate(0,0)"/>
<path d="" fill="#F8F9F8" transform="translate(0,0)"/>
<path d="M0 0 C2 1 2 1 2 1 Z " fill="#F4F5F7" transform="translate(469,340)"/>
<path d="M0 0 C2 1 2 1 2 1 Z " fill="#F7F6F4" transform="translate(770,323)"/>
<path d="M0 0 C2 1 2 1 2 1 Z " fill="#F6F6F6" transform="translate(416,322)"/>
<path d="M0 0 C2 1 2 1 2 1 Z " fill="#F6F6F6" transform="translate(422,321)"/>
<path d="" fill="#F2F1F0" transform="translate(0,0)"/>
<path d="" fill="#EEEEEE" transform="translate(0,0)"/>
<path d="M0 0 C2 1 2 1 2 1 Z " fill="#F1F2F1" transform="translate(825,264)"/>
<path d="M0 0 C2 1 2 1 2 1 Z " fill="#F4F4F4" transform="translate(684,243)"/>
<path d="M0 0 C2 1 2 1 2 1 Z " fill="#F7F9F9" transform="translate(656,227)"/>
<path d="M0 0 C2 1 2 1 2 1 Z " fill="#F5F4F4" transform="translate(619,211)"/>
<path d="" fill="#F2F3F4" transform="translate(0,0)"/>
<path d="M0 0 C2 1 2 1 2 1 Z " fill="#F1F2F4" transform="translate(773,209)"/>
<path d="M0 0 C2 1 2 1 2 1 Z " fill="#F2F4F5" transform="translate(608,207)"/>
<path d="M0 0 C2 1 2 1 2 1 Z " fill="#F5F5F5" transform="translate(417,205)"/>
<path d="M0 0 C2 1 2 1 2 1 Z " fill="#F6F7F6" transform="translate(470,194)"/>
<path d="M0 0 C2 1 2 1 2 1 Z " fill="#EEEFF1" transform="translate(304,169)"/>
<path d="M0 0 C2 1 2 1 2 1 Z " fill="#EFEFF0" transform="translate(320,160)"/>
<path d="" fill="#F0F0EF" transform="translate(0,0)"/>
<path d="M0 0 C2 1 2 1 2 1 Z " fill="#F1F1F0" transform="translate(676,148)"/>
<path d="" fill="#F1F3F1" transform="translate(0,0)"/>
<path d="M0 0 C2 1 2 1 2 1 Z " fill="#EFF0F1" transform="translate(361,141)"/>
<path d="M0 0 C2 1 2 1 2 1 Z " fill="#EEEFF0" transform="translate(369,138)"/>
<path d="M0 0 C2 1 2 1 2 1 Z " fill="#EFEFEF" transform="translate(371,137)"/>
<path d="M0 0 C2 1 2 1 2 1 Z " fill="#F0F1F0" transform="translate(384,133)"/>
<path d="M0 0 C2 1 2 1 2 1 Z " fill="#F0F2F2" transform="translate(394,130)"/>
<path d="M0 0 C2 1 2 1 2 1 Z " fill="#F1F0F2" transform="translate(622,129)"/>
<path d="M0 0 C2 1 2 1 2 1 Z " fill="#F2F2F3" transform="translate(397,129)"/>
<path d="M0 0 C2 1 2 1 2 1 Z " fill="#EEEFEF" transform="translate(619,128)"/>
<path d="M0 0 C2 1 2 1 2 1 Z " fill="#EDEDEC" transform="translate(390,128)"/>
<path d="M0 0 C2 1 2 1 2 1 Z " fill="#EFF0F1" transform="translate(597,123)"/>
<path d="M0 0 C2 1 2 1 2 1 Z " fill="#F0F1F1" transform="translate(426,122)"/>
<path d="M0 0 C2 1 2 1 2 1 Z " fill="#F4F5F4" transform="translate(467,116)"/>
<path d="M0 0 C2 1 2 1 2 1 Z " fill="#EEEFEE" transform="translate(490,114)"/>
<path d="" fill="#1A1C1B" transform="translate(0,0)"/>
<path d="" fill="#7A7A7A" transform="translate(0,0)"/>
<path d="" fill="#E9E9EA" transform="translate(0,0)"/>
<path d="" fill="#EDEDEF" transform="translate(0,0)"/>
<path d="" fill="#EDF0F0" transform="translate(0,0)"/>
<path d="" fill="#F2F3F2" transform="translate(0,0)"/>
<path d="" fill="#EEEFEE" transform="translate(0,0)"/>
<path d="" fill="#F1EFF0" transform="translate(0,0)"/>
<path d="" fill="#EFF0EF" transform="translate(0,0)"/>
<path d="" fill="#EEF0EF" transform="translate(0,0)"/>
<path d="" fill="#EFEEF0" transform="translate(0,0)"/>
<path d="" fill="#EEEFF0" transform="translate(0,0)"/>
<path d="" fill="#F0EFF0" transform="translate(0,0)"/>
<path d="" fill="#F2F2F4" transform="translate(0,0)"/>
<path d="" fill="#EFF1EF" transform="translate(0,0)"/>
<path d="" fill="#F0EFEF" transform="translate(0,0)"/>
<path d="" fill="#ECEDED" transform="translate(0,0)"/>
<path d="" fill="#E9E9E9" transform="translate(0,0)"/>
<path d="" fill="#F0F0F1" transform="translate(0,0)"/>
<path d="" fill="#EFEFEE" transform="translate(0,0)"/>
<path d="" fill="#EFF1F1" transform="translate(0,0)"/>
<path d="" fill="#F0F0EF" transform="translate(0,0)"/>
<path d="" fill="#ECEFED" transform="translate(0,0)"/>
<path d="" fill="#F0F2F1" transform="translate(0,0)"/>
<path d="" fill="#F1F2F3" transform="translate(0,0)"/>
<path d="" fill="#EEEEEF" transform="translate(0,0)"/>
<path d="" fill="#EBEBEA" transform="translate(0,0)"/>
<path d="" fill="#EFEEEE" transform="translate(0,0)"/>
<path d="" fill="#ECEDEE" transform="translate(0,0)"/>
<path d="" fill="#EAEBEB" transform="translate(0,0)"/>
<path d="" fill="#EFF0EF" transform="translate(0,0)"/>
<path d="" fill="#EBEAEB" transform="translate(0,0)"/>
<path d="" fill="#EDEDEC" transform="translate(0,0)"/>
<path d="" fill="#EBECED" transform="translate(0,0)"/>
<path d="" fill="#EDF0EE" transform="translate(0,0)"/>
<path d="" fill="#EAEAEA" transform="translate(0,0)"/>
<path d="" fill="#EBEBEB" transform="translate(0,0)"/>
<path d="" fill="#E9EAEA" transform="translate(0,0)"/>
<path d="" fill="#ECEBEC" transform="translate(0,0)"/>
<path d="" fill="#EDEFEC" transform="translate(0,0)"/>
<path d="" fill="#EBEFEE" transform="translate(0,0)"/>
<path d="" fill="#E6E7E7" transform="translate(0,0)"/>
<path d="" fill="#EDEFEE" transform="translate(0,0)"/>
<path d="" fill="#EDEDEF" transform="translate(0,0)"/>
<path d="" fill="#EDECED" transform="translate(0,0)"/>
<path d="" fill="#EBEBEB" transform="translate(0,0)"/>
<path d="" fill="#E7EAEA" transform="translate(0,0)"/>
<path d="" fill="#ECECED" transform="translate(0,0)"/>
<path d="" fill="#EBEDEB" transform="translate(0,0)"/>
<path d="" fill="#EEEFEE" transform="translate(0,0)"/>
<path d="" fill="#EAEBEB" transform="translate(0,0)"/>
<path d="" fill="#EEEFEF" transform="translate(0,0)"/>
<path d="" fill="#ECECEB" transform="translate(0,0)"/>
<path d="" fill="#EEEFF0" transform="translate(0,0)"/>
<path d="" fill="#EDEEEF" transform="translate(0,0)"/>
<path d="" fill="#EEF0F0" transform="translate(0,0)"/>
<path d="" fill="#F6F7F9" transform="translate(0,0)"/>
<path d="" fill="#F8F6F7" transform="translate(0,0)"/>
<path d="" fill="#F8F7FA" transform="translate(0,0)"/>
<path d="" fill="#F5F5F6" transform="translate(0,0)"/>
<path d="" fill="#F7F7F7" transform="translate(0,0)"/>
<path d="" fill="#F5F6F8" transform="translate(0,0)"/>
<path d="" fill="#F7F8F7" transform="translate(0,0)"/>
<path d="" fill="#EBEBEB" transform="translate(0,0)"/>
<path d="" fill="#EFEEED" transform="translate(0,0)"/>
<path d="" fill="#FBF9F9" transform="translate(0,0)"/>
<path d="" fill="#F7F7F7" transform="translate(0,0)"/>
<path d="" fill="#F6F7F6" transform="translate(0,0)"/>
<path d="" fill="#EDEEED" transform="translate(0,0)"/>
<path d="" fill="#F7F5F5" transform="translate(0,0)"/>
<path d="" fill="#F6F9F7" transform="translate(0,0)"/>
<path d="" fill="#F8F9F8" transform="translate(0,0)"/>
<path d="" fill="#F4F7F7" transform="translate(0,0)"/>
<path d="" fill="#F8F8FA" transform="translate(0,0)"/>
<path d="" fill="#F4F4F3" transform="translate(0,0)"/>
<path d="" fill="#F3F3F2" transform="translate(0,0)"/>
<path d="" fill="#F5F6F5" transform="translate(0,0)"/>
<path d="" fill="#F6F7F6" transform="translate(0,0)"/>
<path d="" fill="#EFEFEF" transform="translate(0,0)"/>
<path d="" fill="#EDEEED" transform="translate(0,0)"/>
<path d="" fill="#F5F6F5" transform="translate(0,0)"/>
<path d="" fill="#F4F6F5" transform="translate(0,0)"/>
<path d="" fill="#F8F8F7" transform="translate(0,0)"/>
<path d="" fill="#F7F6F6" transform="translate(0,0)"/>
<path d="" fill="#F4F5F5" transform="translate(0,0)"/>
<path d="" fill="#F6F7F6" transform="translate(0,0)"/>
<path d="" fill="#EBECED" transform="translate(0,0)"/>
<path d="" fill="#F3F5F4" transform="translate(0,0)"/>
<path d="" fill="#F5F5F6" transform="translate(0,0)"/>
<path d="" fill="#EFF0F1" transform="translate(0,0)"/>
<path d="" fill="#EFEFEE" transform="translate(0,0)"/>
<path d="" fill="#F7F6F4" transform="translate(0,0)"/>
<path d="" fill="#F6F5F5" transform="translate(0,0)"/>
<path d="" fill="#F9F9F8" transform="translate(0,0)"/>
<path d="" fill="#F8F8F8" transform="translate(0,0)"/>
<path d="" fill="#F3F4F2" transform="translate(0,0)"/>
<path d="" fill="#F8F8F9" transform="translate(0,0)"/>
<path d="" fill="#F3F4F4" transform="translate(0,0)"/>
<path d="" fill="#F4F4F4" transform="translate(0,0)"/>
<path d="" fill="#F8F7F7" transform="translate(0,0)"/>
<path d="" fill="#E8EBEA" transform="translate(0,0)"/>
<path d="" fill="#EFEFEF" transform="translate(0,0)"/>
<path d="" fill="#EDEEED" transform="translate(0,0)"/>
<path d="" fill="#F6F7F6" transform="translate(0,0)"/>
<path d="" fill="#F8F7F5" transform="translate(0,0)"/>
<path d="" fill="#F9F8F9" transform="translate(0,0)"/>
<path d="" fill="#F6F6F6" transform="translate(0,0)"/>
<path d="" fill="#F0F2F2" transform="translate(0,0)"/>
<path d="" fill="#F1F4F4" transform="translate(0,0)"/>
<path d="" fill="#F8FBF6" transform="translate(0,0)"/>
<path d="" fill="#F9FAFA" transform="translate(0,0)"/>
<path d="" fill="#EEEFF1" transform="translate(0,0)"/>
<path d="" fill="#F6F7F8" transform="translate(0,0)"/>
<path d="" fill="#F6F6F3" transform="translate(0,0)"/>
<path d="" fill="#F9F8F7" transform="translate(0,0)"/>
<path d="" fill="#F3F3F4" transform="translate(0,0)"/>
<path d="" fill="#F6F6F6" transform="translate(0,0)"/>
<path d="" fill="#F4F6F7" transform="translate(0,0)"/>
<path d="" fill="#F7F6F6" transform="translate(0,0)"/>
<path d="" fill="#EBEEED" transform="translate(0,0)"/>
<path d="" fill="#F5F4F6" transform="translate(0,0)"/>
<path d="" fill="#F3F4F5" transform="translate(0,0)"/>
<path d="" fill="#F9F8F8" transform="translate(0,0)"/>
<path d="" fill="#F4F5F5" transform="translate(0,0)"/>
<path d="" fill="#EBECED" transform="translate(0,0)"/>
<path d="" fill="#F7F5F5" transform="translate(0,0)"/>
<path d="" fill="#F2F3F3" transform="translate(0,0)"/>
<path d="" fill="#F6F7F6" transform="translate(0,0)"/>
<path d="" fill="#F9F9F9" transform="translate(0,0)"/>
<path d="" fill="#F7F9FA" transform="translate(0,0)"/>
<path d="" fill="#EEEFEF" transform="translate(0,0)"/>
<path d="" fill="#F6F8F8" transform="translate(0,0)"/>
<path d="" fill="#F6F7F6" transform="translate(0,0)"/>
<path d="" fill="#F1EEF0" transform="translate(0,0)"/>
<path d="" fill="#F7F7F7" transform="translate(0,0)"/>
<path d="" fill="#F5F7F6" transform="translate(0,0)"/>
<path d="" fill="#F6F6F5" transform="translate(0,0)"/>
<path d="" fill="#EFEEEF" transform="translate(0,0)"/>
<path d="" fill="#F6F6F5" transform="translate(0,0)"/>
<path d="" fill="#F9F8F8" transform="translate(0,0)"/>
<path d="" fill="#F3F3F3" transform="translate(0,0)"/>
<path d="" fill="#F9FBF8" transform="translate(0,0)"/>
<path d="" fill="#ECECEC" transform="translate(0,0)"/>
<path d="" fill="#EEEFEE" transform="translate(0,0)"/>
<path d="" fill="#F7F9FA" transform="translate(0,0)"/>
<path d="" fill="#EDEDED" transform="translate(0,0)"/>
<path d="" fill="#EEEFF0" transform="translate(0,0)"/>
<path d="" fill="#F8F8F7" transform="translate(0,0)"/>
<path d="" fill="#F4F5F5" transform="translate(0,0)"/>
<path d="" fill="#F0F0F1" transform="translate(0,0)"/>
<path d="" fill="#F6F7F6" transform="translate(0,0)"/>
<path d="" fill="#F7F6F7" transform="translate(0,0)"/>
<path d="" fill="#F1EFEF" transform="translate(0,0)"/>
<path d="" fill="#F7F6F8" transform="translate(0,0)"/>
<path d="" fill="#EDEEEE" transform="translate(0,0)"/>
<path d="" fill="#EDEDEE" transform="translate(0,0)"/>
<path d="" fill="#E6E6E6" transform="translate(0,0)"/>
<path d="" fill="#FAFBF8" transform="translate(0,0)"/>
<path d="" fill="#F7F7F8" transform="translate(0,0)"/>
<path d="" fill="#F2F3F1" transform="translate(0,0)"/>
<path d="" fill="#EFF1F1" transform="translate(0,0)"/>
<path d="" fill="#F0F0F0" transform="translate(0,0)"/>
<path d="" fill="#F2F2F2" transform="translate(0,0)"/>
<path d="" fill="#EEEFEE" transform="translate(0,0)"/>
<path d="" fill="#F6F6F7" transform="translate(0,0)"/>
<path d="" fill="#F3F4F4" transform="translate(0,0)"/>
<path d="" fill="#F4F6F3" transform="translate(0,0)"/>
<path d="" fill="#F2F2F3" transform="translate(0,0)"/>
<path d="" fill="#F7F6F6" transform="translate(0,0)"/>
<path d="" fill="#F6F6F7" transform="translate(0,0)"/>
<path d="" fill="#F8F6F7" transform="translate(0,0)"/>
<path d="" fill="#F7F9F8" transform="translate(0,0)"/>
<path d="" fill="#F6F6F6" transform="translate(0,0)"/>
<path d="" fill="#F7F7F6" transform="translate(0,0)"/>
<path d="" fill="#F7F7F6" transform="translate(0,0)"/>
<path d="" fill="#F5F6F8" transform="translate(0,0)"/>
<path d="" fill="#F4F5F6" transform="translate(0,0)"/>
<path d="" fill="#F8F8F9" transform="translate(0,0)"/>
<path d="" fill="#F0F1F0" transform="translate(0,0)"/>
<path d="" fill="#F2F3F3" transform="translate(0,0)"/>
<path d="" fill="#F9FAFB" transform="translate(0,0)"/>
<path d="" fill="#F7F6F6" transform="translate(0,0)"/>
<path d="" fill="#F6F8F7" transform="translate(0,0)"/>
<path d="" fill="#F6F7F7" transform="translate(0,0)"/>
<path d="" fill="#F5F6F6" transform="translate(0,0)"/>
<path d="" fill="#F5F6F5" transform="translate(0,0)"/>
<path d="" fill="#F1F2F1" transform="translate(0,0)"/>
<path d="" fill="#F7F7F5" transform="translate(0,0)"/>
<path d="" fill="#F4F3F2" transform="translate(0,0)"/>
<path d="" fill="#EFEEEF" transform="translate(0,0)"/>
<path d="" fill="#EFEDF0" transform="translate(0,0)"/>
<path d="" fill="#F7F8F7" transform="translate(0,0)"/>
<path d="" fill="#F5F6F6" transform="translate(0,0)"/>
<path d="" fill="#F0F3F2" transform="translate(0,0)"/>
<path d="" fill="#EBEEE9" transform="translate(0,0)"/>
<path d="" fill="#F1F3F3" transform="translate(0,0)"/>
<path d="" fill="#F6F6F7" transform="translate(0,0)"/>
<path d="" fill="#EFEFEE" transform="translate(0,0)"/>
<path d="" fill="#F7F5F5" transform="translate(0,0)"/>
<path d="" fill="#F4F4F4" transform="translate(0,0)"/>
<path d="" fill="#F6F6F6" transform="translate(0,0)"/>
<path d="" fill="#F8F7F7" transform="translate(0,0)"/>
<path d="" fill="#EFEFEF" transform="translate(0,0)"/>
<path d="" fill="#F4F5F5" transform="translate(0,0)"/>
<path d="" fill="#F1F5F5" transform="translate(0,0)"/>
<path d="" fill="#F2F3F2" transform="translate(0,0)"/>
<path d="" fill="#F3F2F3" transform="translate(0,0)"/>
<path d="" fill="#F5F4F4" transform="translate(0,0)"/>
<path d="" fill="#F3F2F3" transform="translate(0,0)"/>
<path d="" fill="#F7F6F7" transform="translate(0,0)"/>
<path d="" fill="#F5F4F3" transform="translate(0,0)"/>
<path d="" fill="#F3F5F5" transform="translate(0,0)"/>
<path d="" fill="#F5F5F5" transform="translate(0,0)"/>
<path d="" fill="#F6F7F7" transform="translate(0,0)"/>
<path d="" fill="#F8F8F8" transform="translate(0,0)"/>
<path d="" fill="#F4F7F5" transform="translate(0,0)"/>
<path d="" fill="#F4F6F5" transform="translate(0,0)"/>
<path d="" fill="#F3F5F4" transform="translate(0,0)"/>
<path d="" fill="#F7F8F7" transform="translate(0,0)"/>
<path d="" fill="#F2F3F4" transform="translate(0,0)"/>
<path d="" fill="#F5F6F4" transform="translate(0,0)"/>
<path d="" fill="#F1F2F1" transform="translate(0,0)"/>
<path d="" fill="#F7F9F6" transform="translate(0,0)"/>
<path d="" fill="#F4F4F5" transform="translate(0,0)"/>
<path d="" fill="#F8FAF8" transform="translate(0,0)"/>
<path d="" fill="#F3F5F5" transform="translate(0,0)"/>
<path d="" fill="#F1F3F3" transform="translate(0,0)"/>
<path d="" fill="#F0F0F0" transform="translate(0,0)"/>
<path d="" fill="#F4F6F6" transform="translate(0,0)"/>
<path d="" fill="#F4F5F5" transform="translate(0,0)"/>
<path d="" fill="#F3F4F3" transform="translate(0,0)"/>
<path d="" fill="#F4F5F6" transform="translate(0,0)"/>
<path d="" fill="#F0F0EF" transform="translate(0,0)"/>
<path d="" fill="#F5F6F5" transform="translate(0,0)"/>
<path d="" fill="#EEEDEC" transform="translate(0,0)"/>
<path d="" fill="#F3F3F7" transform="translate(0,0)"/>
<path d="" fill="#F1F2F1" transform="translate(0,0)"/>
<path d="" fill="#F8F7F5" transform="translate(0,0)"/>
<path d="" fill="#F2F3F3" transform="translate(0,0)"/>
<path d="" fill="#EDEEEE" transform="translate(0,0)"/>
<path d="" fill="#F4F5F6" transform="translate(0,0)"/>
<path d="" fill="#F4F4F4" transform="translate(0,0)"/>
<path d="" fill="#F4F4F4" transform="translate(0,0)"/>
<path d="" fill="#F7F5F6" transform="translate(0,0)"/>
<path d="" fill="#F6F6F7" transform="translate(0,0)"/>
<path d="" fill="#F7F7F8" transform="translate(0,0)"/>
<path d="" fill="#F3F3F5" transform="translate(0,0)"/>
<path d="" fill="#F0EFF0" transform="translate(0,0)"/>
<path d="" fill="#F2F3F2" transform="translate(0,0)"/>
<path d="" fill="#F3F3F4" transform="translate(0,0)"/>
<path d="" fill="#F7F6F7" transform="translate(0,0)"/>
<path d="" fill="#F9F7F9" transform="translate(0,0)"/>
<path d="" fill="#F3F4F5" transform="translate(0,0)"/>
<path d="" fill="#F3F4F5" transform="translate(0,0)"/>
<path d="" fill="#F1F1F0" transform="translate(0,0)"/>
<path d="" fill="#F8F8F7" transform="translate(0,0)"/>
<path d="" fill="#F0F0F1" transform="translate(0,0)"/>
<path d="" fill="#F7F6F6" transform="translate(0,0)"/>
<path d="" fill="#F9F7F8" transform="translate(0,0)"/>
<path d="" fill="#F5F5F5" transform="translate(0,0)"/>
<path d="" fill="#EFF1F0" transform="translate(0,0)"/>
<path d="" fill="#F9F9F7" transform="translate(0,0)"/>
<path d="" fill="#F7F6F7" transform="translate(0,0)"/>
<path d="" fill="#F2F3F3" transform="translate(0,0)"/>
<path d="" fill="#F0F1F1" transform="translate(0,0)"/>
<path d="" fill="#F8FAF8" transform="translate(0,0)"/>
<path d="" fill="#F1F2F3" transform="translate(0,0)"/>
<path d="" fill="#F3F5F4" transform="translate(0,0)"/>
<path d="" fill="#F3F2F2" transform="translate(0,0)"/>
<path d="" fill="#F6F5F7" transform="translate(0,0)"/>
<path d="" fill="#F5F6F4" transform="translate(0,0)"/>
<path d="" fill="#F4F5F6" transform="translate(0,0)"/>
<path d="" fill="#F4F4F4" transform="translate(0,0)"/>
<path d="" fill="#F3F2F3" transform="translate(0,0)"/>
<path d="" fill="#F3F3F4" transform="translate(0,0)"/>
<path d="" fill="#F4F3F4" transform="translate(0,0)"/>
<path d="" fill="#F3F4F4" transform="translate(0,0)"/>
<path d="" fill="#F2F4F4" transform="translate(0,0)"/>
<path d="" fill="#F4F5F7" transform="translate(0,0)"/>
<path d="" fill="#F4F3F4" transform="translate(0,0)"/>
<path d="" fill="#F3F5F4" transform="translate(0,0)"/>
<path d="" fill="#F2F5F3" transform="translate(0,0)"/>
<path d="" fill="#F2F1F3" transform="translate(0,0)"/>
<path d="" fill="#F2F3F5" transform="translate(0,0)"/>
<path d="" fill="#F0F1F1" transform="translate(0,0)"/>
<path d="" fill="#F7F6F6" transform="translate(0,0)"/>
<path d="" fill="#F9FAF9" transform="translate(0,0)"/>
<path d="" fill="#F5F7F5" transform="translate(0,0)"/>
<path d="" fill="#F4F2F2" transform="translate(0,0)"/>
<path d="" fill="#F4F3F6" transform="translate(0,0)"/>
<path d="" fill="#F2F2F4" transform="translate(0,0)"/>
<path d="" fill="#F6F9F7" transform="translate(0,0)"/>
<path d="" fill="#F4F6F6" transform="translate(0,0)"/>
<path d="" fill="#F8F9F8" transform="translate(0,0)"/>
<path d="" fill="#F4F3F5" transform="translate(0,0)"/>
<path d="" fill="#F6F2F3" transform="translate(0,0)"/>
<path d="" fill="#F4F5F6" transform="translate(0,0)"/>
<path d="" fill="#F3F3F3" transform="translate(0,0)"/>
<path d="" fill="#F4F4F6" transform="translate(0,0)"/>
<path d="" fill="#F7F7F6" transform="translate(0,0)"/>
<path d="" fill="#F6F8F7" transform="translate(0,0)"/>
<path d="" fill="#F3F3F4" transform="translate(0,0)"/>
<path d="" fill="#F6F7F6" transform="translate(0,0)"/>
<path d="" fill="#F1F1F5" transform="translate(0,0)"/>
<path d="" fill="#F5F9F8" transform="translate(0,0)"/>
<path d="" fill="#F4F5F5" transform="translate(0,0)"/>
<path d="" fill="#F1F1F3" transform="translate(0,0)"/>
<path d="" fill="#F6F7F7" transform="translate(0,0)"/>
<path d="" fill="#F1F2F1" transform="translate(0,0)"/>
<path d="" fill="#F9F9F9" transform="translate(0,0)"/>
<path d="" fill="#F6F7F7" transform="translate(0,0)"/>
<path d="" fill="#F5F6F6" transform="translate(0,0)"/>
<path d="" fill="#F2F3F2" transform="translate(0,0)"/>
<path d="" fill="#F2F3F1" transform="translate(0,0)"/>
<path d="" fill="#F5F5F6" transform="translate(0,0)"/>
<path d="" fill="#F1F1F2" transform="translate(0,0)"/>
<path d="" fill="#F7F8F7" transform="translate(0,0)"/>
<path d="" fill="#F5F5F7" transform="translate(0,0)"/>
<path d="" fill="#F8F9F8" transform="translate(0,0)"/>
<path d="" fill="#F6F6F7" transform="translate(0,0)"/>
<path d="" fill="#F4F6F6" transform="translate(0,0)"/>
<path d="" fill="#F6F6F7" transform="translate(0,0)"/>
<path d="" fill="#F8F8F8" transform="translate(0,0)"/>
<path d="" fill="#F7F8F7" transform="translate(0,0)"/>
<path d="" fill="#F2F1F2" transform="translate(0,0)"/>
<path d="" fill="#F5F6F8" transform="translate(0,0)"/>
<path d="" fill="#F5F7F8" transform="translate(0,0)"/>
<path d="" fill="#F4F5F4" transform="translate(0,0)"/>
<path d="" fill="#FAFBFB" transform="translate(0,0)"/>
<path d="" fill="#F5F6F6" transform="translate(0,0)"/>
<path d="" fill="#F8F9F6" transform="translate(0,0)"/>
<path d="" fill="#F3F5F4" transform="translate(0,0)"/>
<path d="" fill="#F6F6F5" transform="translate(0,0)"/>
<path d="" fill="#F6F9F8" transform="translate(0,0)"/>
<path d="" fill="#F8F6F6" transform="translate(0,0)"/>
<path d="" fill="#F7F8F7" transform="translate(0,0)"/>
<path d="" fill="#F6F6F6" transform="translate(0,0)"/>
<path d="" fill="#F4F6F6" transform="translate(0,0)"/>
<path d="" fill="#F5F6F3" transform="translate(0,0)"/>
<path d="" fill="#F1F1F1" transform="translate(0,0)"/>
<path d="" fill="#F8F9F8" transform="translate(0,0)"/>
<path d="" fill="#F1F3F1" transform="translate(0,0)"/>
<path d="" fill="#F5F5F5" transform="translate(0,0)"/>
<path d="" fill="#F4F4F5" transform="translate(0,0)"/>
<path d="" fill="#F6F5F5" transform="translate(0,0)"/>
<path d="" fill="#F6F9F8" transform="translate(0,0)"/>
<path d="" fill="#F4F3F3" transform="translate(0,0)"/>
<path d="" fill="#F4F6F5" transform="translate(0,0)"/>
<path d="" fill="#F5F5F6" transform="translate(0,0)"/>
<path d="" fill="#F6F6F6" transform="translate(0,0)"/>
<path d="" fill="#F6F5F4" transform="translate(0,0)"/>
<path d="" fill="#F5F5F4" transform="translate(0,0)"/>
<path d="" fill="#F7F6F5" transform="translate(0,0)"/>
<path d="" fill="#F6F6F8" transform="translate(0,0)"/>
<path d="" fill="#F8F7F7" transform="translate(0,0)"/>
<path d="" fill="#EFF0EE" transform="translate(0,0)"/>
<path d="" fill="#F6F8F7" transform="translate(0,0)"/>
<path d="" fill="#F4F3F6" transform="translate(0,0)"/>
<path d="" fill="#F8FAF9" transform="translate(0,0)"/>
<path d="" fill="#F6F6F5" transform="translate(0,0)"/>
<path d="" fill="#F3F1EF" transform="translate(0,0)"/>
<path d="" fill="#FAFAFA" transform="translate(0,0)"/>
<path d="" fill="#F6F8F8" transform="translate(0,0)"/>
<path d="" fill="#F5F6F7" transform="translate(0,0)"/>
<path d="" fill="#F5F6F5" transform="translate(0,0)"/>
<path d="" fill="#F8F7F7" transform="translate(0,0)"/>
<path d="" fill="#F5F5F5" transform="translate(0,0)"/>
<path d="" fill="#F6F4F4" transform="translate(0,0)"/>
<path d="" fill="#FBFCFD" transform="translate(0,0)"/>
<path d="" fill="#F6F8F8" transform="translate(0,0)"/>
<path d="" fill="#F9F9F9" transform="translate(0,0)"/>
<path d="" fill="#F9F6F6" transform="translate(0,0)"/>
<path d="" fill="#F2F2F1" transform="translate(0,0)"/>
<path d="" fill="#F1F1F0" transform="translate(0,0)"/>
<path d="" fill="#F4F4F2" transform="translate(0,0)"/>
<path d="" fill="#F5F9F7" transform="translate(0,0)"/>
<path d="" fill="#F7F8F7" transform="translate(0,0)"/>
<path d="" fill="#F9F8F7" transform="translate(0,0)"/>
<path d="" fill="#F1EFF0" transform="translate(0,0)"/>
<path d="" fill="#EFF1F0" transform="translate(0,0)"/>
<path d="" fill="#F2F2F3" transform="translate(0,0)"/>
<path d="" fill="#F7F8F8" transform="translate(0,0)"/>
<path d="" fill="#F7F8F8" transform="translate(0,0)"/>
<path d="" fill="#F6F6F6" transform="translate(0,0)"/>
<path d="" fill="#F7F7F6" transform="translate(0,0)"/>
<path d="" fill="#F3F6F4" transform="translate(0,0)"/>
<path d="" fill="#F4F3F3" transform="translate(0,0)"/>
<path d="" fill="#F6F4F4" transform="translate(0,0)"/>
<path d="" fill="#EFEFF1" transform="translate(0,0)"/>
<path d="" fill="#F9FAF7" transform="translate(0,0)"/>
<path d="" fill="#F8F8F9" transform="translate(0,0)"/>
<path d="" fill="#F3F2F2" transform="translate(0,0)"/>
<path d="" fill="#F1F3F1" transform="translate(0,0)"/>
<path d="" fill="#F4F5F5" transform="translate(0,0)"/>
<path d="" fill="#F5F7F6" transform="translate(0,0)"/>
<path d="" fill="#ECECEB" transform="translate(0,0)"/>
<path d="" fill="#F7F5F7" transform="translate(0,0)"/>
<path d="" fill="#F6F5F7" transform="translate(0,0)"/>
<path d="" fill="#F4F6F8" transform="translate(0,0)"/>
<path d="" fill="#F6F7F7" transform="translate(0,0)"/>
<path d="" fill="#F3F3F5" transform="translate(0,0)"/>
<path d="" fill="#F6F4F4" transform="translate(0,0)"/>
<path d="" fill="#F5F4F4" transform="translate(0,0)"/>
<path d="" fill="#F3F4F4" transform="translate(0,0)"/>
<path d="" fill="#F0F0F1" transform="translate(0,0)"/>
<path d="" fill="#F1F1F0" transform="translate(0,0)"/>
<path d="" fill="#F8F8F9" transform="translate(0,0)"/>
<path d="" fill="#F4F4F2" transform="translate(0,0)"/>
<path d="" fill="#F5F6F5" transform="translate(0,0)"/>
<path d="" fill="#F5F6F6" transform="translate(0,0)"/>
<path d="" fill="#F7F6F6" transform="translate(0,0)"/>
<path d="" fill="#F7F8F5" transform="translate(0,0)"/>
<path d="" fill="#F2F1F0" transform="translate(0,0)"/>
<path d="" fill="#F5F5F6" transform="translate(0,0)"/>
<path d="" fill="#F6F5F5" transform="translate(0,0)"/>
<path d="" fill="#F5F7F4" transform="translate(0,0)"/>
<path d="" fill="#F5F5F6" transform="translate(0,0)"/>
<path d="" fill="#F3F3F1" transform="translate(0,0)"/>
<path d="" fill="#F6F6F5" transform="translate(0,0)"/>
<path d="" fill="#F6F6F6" transform="translate(0,0)"/>
<path d="" fill="#F5F5F5" transform="translate(0,0)"/>
<path d="" fill="#F5F7F6" transform="translate(0,0)"/>
<path d="" fill="#F1F0F3" transform="translate(0,0)"/>
<path d="" fill="#F2F2F2" transform="translate(0,0)"/>
<path d="" fill="#F4F4F4" transform="translate(0,0)"/>
<path d="" fill="#F7F6F6" transform="translate(0,0)"/>
<path d="" fill="#F4F2F2" transform="translate(0,0)"/>
<path d="" fill="#F0F0F0" transform="translate(0,0)"/>
<path d="" fill="#F2F2F3" transform="translate(0,0)"/>
<path d="" fill="#EFF0EE" transform="translate(0,0)"/>
<path d="" fill="#F5F6F6" transform="translate(0,0)"/>
<path d="" fill="#ECEEED" transform="translate(0,0)"/>
<path d="" fill="#F1F2F0" transform="translate(0,0)"/>
<path d="" fill="#F5F6F4" transform="translate(0,0)"/>
<path d="" fill="#F0F0F0" transform="translate(0,0)"/>
<path d="" fill="#EEEEEC" transform="translate(0,0)"/>
<path d="" fill="#F8F9F8" transform="translate(0,0)"/>
<path d="" fill="#F7F7F7" transform="translate(0,0)"/>
<path d="" fill="#F0F0EF" transform="translate(0,0)"/>
<path d="" fill="#F7F5F7" transform="translate(0,0)"/>
<path d="" fill="#F6F7F8" transform="translate(0,0)"/>
<path d="" fill="#F1F0F2" transform="translate(0,0)"/>
<path d="" fill="#EEECED" transform="translate(0,0)"/>
<path d="" fill="#F3F5F4" transform="translate(0,0)"/>
<path d="" fill="#F5F6F2" transform="translate(0,0)"/>
<path d="" fill="#F5F7F6" transform="translate(0,0)"/>
<path d="" fill="#F6F7F4" transform="translate(0,0)"/>
<path d="" fill="#F6F6F7" transform="translate(0,0)"/>
<path d="" fill="#F6F8F8" transform="translate(0,0)"/>
<path d="" fill="#F6F5F5" transform="translate(0,0)"/>
<path d="" fill="#F0F0F0" transform="translate(0,0)"/>
<path d="" fill="#F5F5F5" transform="translate(0,0)"/>
<path d="" fill="#F5F6F7" transform="translate(0,0)"/>
<path d="" fill="#F1F0F1" transform="translate(0,0)"/>
<path d="" fill="#EFF3F2" transform="translate(0,0)"/>
<path d="" fill="#F3F2F2" transform="translate(0,0)"/>
<path d="" fill="#EFEFF0" transform="translate(0,0)"/>
<path d="" fill="#F1F1F1" transform="translate(0,0)"/>
<path d="" fill="#EBEDEE" transform="translate(0,0)"/>
<path d="" fill="#F7F7F4" transform="translate(0,0)"/>
<path d="" fill="#F2F4F3" transform="translate(0,0)"/>
<path d="" fill="#F5F8F7" transform="translate(0,0)"/>
<path d="" fill="#F8F8F9" transform="translate(0,0)"/>
<path d="" fill="#F6F6F7" transform="translate(0,0)"/>
<path d="" fill="#F8F6F6" transform="translate(0,0)"/>
<path d="" fill="#F3F3F2" transform="translate(0,0)"/>
<path d="" fill="#F1F2F3" transform="translate(0,0)"/>
<path d="" fill="#F4F3F2" transform="translate(0,0)"/>
<path d="" fill="#F8FAFA" transform="translate(0,0)"/>
<path d="" fill="#F1F3F3" transform="translate(0,0)"/>
<path d="" fill="#EFF0F0" transform="translate(0,0)"/>
<path d="" fill="#F0F2F0" transform="translate(0,0)"/>
<path d="" fill="#F6F5F6" transform="translate(0,0)"/>
<path d="" fill="#F8F7F6" transform="translate(0,0)"/>
<path d="" fill="#F2F4F5" transform="translate(0,0)"/>
<path d="" fill="#EDEEF0" transform="translate(0,0)"/>
<path d="" fill="#F5FAF9" transform="translate(0,0)"/>
<path d="" fill="#F7F8F6" transform="translate(0,0)"/>
<path d="" fill="#F2F2F2" transform="translate(0,0)"/>
<path d="" fill="#F3F3F3" transform="translate(0,0)"/>
<path d="" fill="#F1F3F2" transform="translate(0,0)"/>
<path d="" fill="#F4F5F4" transform="translate(0,0)"/>
<path d="" fill="#F3F3F3" transform="translate(0,0)"/>
<path d="" fill="#F5F6F7" transform="translate(0,0)"/>
<path d="" fill="#F5F6F6" transform="translate(0,0)"/>
<path d="" fill="#F8F8F7" transform="translate(0,0)"/>
<path d="" fill="#F4F3F5" transform="translate(0,0)"/>
<path d="" fill="#EFF3F0" transform="translate(0,0)"/>
<path d="" fill="#F2F5F5" transform="translate(0,0)"/>
<path d="" fill="#F0F0F0" transform="translate(0,0)"/>
<path d="" fill="#F4F6F6" transform="translate(0,0)"/>
<path d="" fill="#F7F7F9" transform="translate(0,0)"/>
<path d="" fill="#F2F5F5" transform="translate(0,0)"/>
<path d="" fill="#F7F9F7" transform="translate(0,0)"/>
<path d="" fill="#F2F2F1" transform="translate(0,0)"/>
<path d="" fill="#F1F3F3" transform="translate(0,0)"/>
<path d="" fill="#F2F4F6" transform="translate(0,0)"/>
<path d="" fill="#F6F8F8" transform="translate(0,0)"/>
<path d="" fill="#F7F7F5" transform="translate(0,0)"/>
<path d="" fill="#F6F7F5" transform="translate(0,0)"/>
<path d="" fill="#F0F3F2" transform="translate(0,0)"/>
<path d="" fill="#F7F8F7" transform="translate(0,0)"/>
<path d="" fill="#EEF0EE" transform="translate(0,0)"/>
<path d="" fill="#F5F5F6" transform="translate(0,0)"/>
<path d="" fill="#F4F4F4" transform="translate(0,0)"/>
<path d="" fill="#F5F5F6" transform="translate(0,0)"/>
<path d="" fill="#F4F1F3" transform="translate(0,0)"/>
<path d="" fill="#F3F4F5" transform="translate(0,0)"/>
<path d="" fill="#F5F7F5" transform="translate(0,0)"/>
<path d="" fill="#F4F4F2" transform="translate(0,0)"/>
<path d="" fill="#F5F5F4" transform="translate(0,0)"/>
<path d="" fill="#F2F2F1" transform="translate(0,0)"/>
<path d="" fill="#EEEFF0" transform="translate(0,0)"/>
<path d="" fill="#F5F2F4" transform="translate(0,0)"/>
<path d="" fill="#F1F1F2" transform="translate(0,0)"/>
<path d="" fill="#F3F2F3" transform="translate(0,0)"/>
<path d="" fill="#F6F8F7" transform="translate(0,0)"/>
<path d="" fill="#F4F5F3" transform="translate(0,0)"/>
<path d="" fill="#F3F4F4" transform="translate(0,0)"/>
<path d="" fill="#F6F8F7" transform="translate(0,0)"/>
<path d="" fill="#F6F6F5" transform="translate(0,0)"/>
<path d="" fill="#F4F4F5" transform="translate(0,0)"/>
<path d="" fill="#F1F1F2" transform="translate(0,0)"/>
<path d="" fill="#F5F3F2" transform="translate(0,0)"/>
<path d="" fill="#F7F5F8" transform="translate(0,0)"/>
<path d="" fill="#F4F6F8" transform="translate(0,0)"/>
<path d="" fill="#F5F5F6" transform="translate(0,0)"/>
<path d="" fill="#F5F6F4" transform="translate(0,0)"/>
<path d="" fill="#F8F7F6" transform="translate(0,0)"/>
<path d="" fill="#F7F6F8" transform="translate(0,0)"/>
<path d="" fill="#F0F1F1" transform="translate(0,0)"/>
<path d="" fill="#F0F0EF" transform="translate(0,0)"/>
<path d="" fill="#F8F8F7" transform="translate(0,0)"/>
<path d="" fill="#F7F5F4" transform="translate(0,0)"/>
<path d="" fill="#EDF0EE" transform="translate(0,0)"/>
<path d="" fill="#F6F6F6" transform="translate(0,0)"/>
<path d="" fill="#F5F4F6" transform="translate(0,0)"/>
<path d="" fill="#EFF0F0" transform="translate(0,0)"/>
<path d="" fill="#F1F2F2" transform="translate(0,0)"/>
<path d="" fill="#EEEEED" transform="translate(0,0)"/>
<path d="" fill="#EDEFEE" transform="translate(0,0)"/>
<path d="" fill="#F4F8F4" transform="translate(0,0)"/>
<path d="" fill="#F2F3F1" transform="translate(0,0)"/>
<path d="" fill="#ECF0ED" transform="translate(0,0)"/>
<path d="" fill="#F0F0F1" transform="translate(0,0)"/>
<path d="" fill="#F1F0F0" transform="translate(0,0)"/>
<path d="" fill="#F2F3F1" transform="translate(0,0)"/>
<path d="" fill="#EDEEEC" transform="translate(0,0)"/>
<path d="" fill="#F5F4F4" transform="translate(0,0)"/>
<path d="" fill="#F3F4F3" transform="translate(0,0)"/>
<path d="" fill="#EBEAEB" transform="translate(0,0)"/>
<path d="" fill="#F1F1F0" transform="translate(0,0)"/>
<path d="" fill="#F2EFEF" transform="translate(0,0)"/>
<path d="" fill="#EFEFEF" transform="translate(0,0)"/>
<path d="" fill="#F9F9F7" transform="translate(0,0)"/>
<path d="" fill="#EAECEA" transform="translate(0,0)"/>
<path d="" fill="#EFEFEF" transform="translate(0,0)"/>
<path d="" fill="#EEF1EF" transform="translate(0,0)"/>
<path d="" fill="#EEEFEF" transform="translate(0,0)"/>
<path d="" fill="#F2F4F4" transform="translate(0,0)"/>
<path d="" fill="#EEEEED" transform="translate(0,0)"/>
<path d="" fill="#EFF0F1" transform="translate(0,0)"/>
<path d="" fill="#F1F2F1" transform="translate(0,0)"/>
<path d="" fill="#F1F1EF" transform="translate(0,0)"/>
<path d="" fill="#F1F0F1" transform="translate(0,0)"/>
<path d="" fill="#F0F2F3" transform="translate(0,0)"/>
<path d="" fill="#ECECED" transform="translate(0,0)"/>
<path d="" fill="#F3F3F2" transform="translate(0,0)"/>
<path d="" fill="#F0EFEF" transform="translate(0,0)"/>
<path d="" fill="#F4F2F5" transform="translate(0,0)"/>
<path d="" fill="#EFEEED" transform="translate(0,0)"/>
<path d="" fill="#EDF0F0" transform="translate(0,0)"/>
<path d="" fill="#ECEBEA" transform="translate(0,0)"/>
<path d="" fill="#EFEFF2" transform="translate(0,0)"/>
<path d="" fill="#F2F2F3" transform="translate(0,0)"/>
<path d="" fill="#F1F3F2" transform="translate(0,0)"/>
<path d="" fill="#F6F7F5" transform="translate(0,0)"/>
<path d="" fill="#F1F0EF" transform="translate(0,0)"/>
<path d="" fill="#F1F1F1" transform="translate(0,0)"/>
<path d="" fill="#F0F2F1" transform="translate(0,0)"/>
<path d="" fill="#F1F1F2" transform="translate(0,0)"/>
<path d="" fill="#F0F0F1" transform="translate(0,0)"/>
<path d="" fill="#EEF0EE" transform="translate(0,0)"/>
<path d="" fill="#F1F3F2" transform="translate(0,0)"/>
<path d="" fill="#F4F5F6" transform="translate(0,0)"/>
<path d="" fill="#F6F4F4" transform="translate(0,0)"/>
<path d="" fill="#EEF3F1" transform="translate(0,0)"/>
<path d="" fill="#F1F2F1" transform="translate(0,0)"/>
<path d="" fill="#F1F2F1" transform="translate(0,0)"/>
<path d="" fill="#F2F2F3" transform="translate(0,0)"/>
<path d="" fill="#F3F3F1" transform="translate(0,0)"/>
<path d="" fill="#F3F3F5" transform="translate(0,0)"/>
<path d="" fill="#F1F3F3" transform="translate(0,0)"/>
<path d="" fill="#F4F5F5" transform="translate(0,0)"/>
<path d="" fill="#EFEEEE" transform="translate(0,0)"/>
<path d="" fill="#070807" transform="translate(0,0)"/>
<path d="" fill="#000000" transform="translate(0,0)"/>
</svg>
