<?xml version="1.0" encoding="UTF-8"?>
<svg version="1.1" xmlns="http://www.w3.org/2000/svg" width="1080" height="1080">
<path d="M0 0 C20.96786321 -0.50033602 42.11269198 1.06315358 62.97802734 3.07080078 C64.10446655 3.17690674 64.10446655 3.17690674 65.25366211 3.28515625 C69.65048415 3.74564615 73.86690158 4.56391886 78.17041016 5.56689453 C82.91813459 6.60363842 87.74147793 7.22750845 92.54833984 7.92626953 C97.3323901 8.64853686 101.83257216 9.68189912 106.47802734 11.07080078 C110.05717827 11.95229746 113.65443822 12.75706177 117.24951172 13.57080078 C121.41930369 14.53161693 125.42603553 15.6801441 129.47802734 17.07080078 C131.76684874 17.72664636 134.05866421 18.37211323 136.35302734 19.00830078 C141.51969291 20.46974456 146.47366068 22.13929084 151.47802734 24.07080078 C153.80068931 24.78855237 156.13099749 25.43514686 158.47802734 26.07080078 C158.47802734 26.73080078 158.47802734 27.39080078 158.47802734 28.07080078 C159.07228516 28.15716797 159.66654297 28.24353516 160.27880859 28.33251953 C167.29052273 29.52113048 173.1121418 31.97211238 179.47802734 35.07080078 C185.73401067 37.93812647 192.07242565 40.55670241 198.47802734 43.07080078 C198.47802734 43.73080078 198.47802734 44.39080078 198.47802734 45.07080078 C199.15865234 45.17392578 199.83927734 45.27705078 200.54052734 45.38330078 C204.10718723 46.21805097 207.14024928 47.56552832 210.47802734 49.07080078 C210.47802734 49.73080078 210.47802734 50.39080078 210.47802734 51.07080078 C211.14705078 51.15072266 211.81607422 51.23064453 212.50537109 51.31298828 C216.4342455 52.3145673 219.55653888 54.16194976 223.04052734 56.19580078 C223.75305664 56.60540039 224.46558594 57.015 225.19970703 57.43701172 C226.63745765 58.26476837 228.0735251 59.09545612 229.5078125 59.92919922 C231.16130744 60.88728377 232.82444222 61.82870487 234.48974609 62.76611328 C245.47268329 69.00178946 255.97377407 76.06796526 266.47802734 83.07080078 C266.47802734 83.73080078 266.47802734 84.39080078 266.47802734 85.07080078 C267.55117187 85.45751953 267.55117187 85.45751953 268.64599609 85.85205078 C271.64962845 87.14464843 274.11308106 88.69857168 276.79052734 90.57080078 C277.67353516 91.17923828 278.55654297 91.78767578 279.46630859 92.41455078 C280.13017578 92.96111328 280.79404297 93.50767578 281.47802734 94.07080078 C281.47802734 94.73080078 281.47802734 95.39080078 281.47802734 96.07080078 C282.20376953 96.31830078 282.92951172 96.56580078 283.67724609 96.82080078 C286.75647998 98.19507532 288.79268774 99.81736008 291.29052734 102.07080078 C292.08072266 102.77205078 292.87091797 103.47330078 293.68505859 104.19580078 C295.47802734 106.07080078 295.47802734 106.07080078 295.47802734 108.07080078 C296.28240234 108.33892578 297.08677734 108.60705078 297.91552734 108.88330078 C298.76115234 109.27517578 299.60677734 109.66705078 300.47802734 110.07080078 C300.80802734 111.06080078 301.13802734 112.05080078 301.47802734 113.07080078 C302.79935432 113.76095818 304.1355013 114.4228455 305.47802734 115.07080078 C307.18202367 116.48533619 308.84634191 117.94843091 310.47802734 119.44580078 C311.32365234 120.21666016 312.16927734 120.98751953 313.04052734 121.78173828 C313.84490234 122.53712891 314.64927734 123.29251953 315.47802734 124.07080078 C316.24115234 124.78494141 317.00427734 125.49908203 317.79052734 126.23486328 C319.47802734 128.07080078 319.47802734 128.07080078 319.47802734 130.07080078 C320.43708984 130.47298828 320.43708984 130.47298828 321.41552734 130.88330078 C323.47802734 132.07080078 323.47802734 132.07080078 324.47802734 135.07080078 C325.8044889 135.75103748 327.138964 136.41571943 328.47802734 137.07080078 C330.39990234 138.94580078 330.39990234 138.94580078 332.22802734 141.07080078 C332.84162109 141.77205078 333.45521484 142.47330078 334.08740234 143.19580078 C335.47802734 145.07080078 335.47802734 145.07080078 335.47802734 147.07080078 C336.13802734 147.07080078 336.79802734 147.07080078 337.47802734 147.07080078 C338.83212055 149.05680415 340.16260358 151.05897621 341.47802734 153.07080078 C342.80588504 154.40958735 344.1397282 155.74245182 345.47802734 157.07080078 C346.75423838 158.59084075 348.00480897 160.13279953 349.22802734 161.69580078 C349.84162109 162.47181641 350.45521484 163.24783203 351.08740234 164.04736328 C352.47802734 166.07080078 352.47802734 166.07080078 352.47802734 168.07080078 C353.13802734 168.07080078 353.79802734 168.07080078 354.47802734 168.07080078 C358.47802734 173.36491843 358.47802734 173.36491843 358.47802734 177.07080078 C359.46802734 177.40080078 360.45802734 177.73080078 361.47802734 178.07080078 C363.26708984 180.65283203 363.26708984 180.65283203 365.10302734 183.88330078 C365.71404297 184.94162109 366.32505859 185.99994141 366.95458984 187.09033203 C368.18872467 189.50480606 369.00462654 191.42871251 369.47802734 194.07080078 C370.13802734 194.07080078 370.79802734 194.07080078 371.47802734 194.07080078 C372.14957667 195.35993565 372.81511593 196.65220282 373.47802734 197.94580078 C373.84927734 198.66509766 374.22052734 199.38439453 374.60302734 200.12548828 C375.47802734 202.07080078 375.47802734 202.07080078 375.47802734 204.07080078 C376.13802734 204.07080078 376.79802734 204.07080078 377.47802734 204.07080078 C378.6866259 206.48799789 379.89464156 208.90545326 381.09912109 211.32470703 C381.95362301 213.02644882 382.81879169 214.72293446 383.70068359 216.41064453 C386.47802734 221.75628465 386.47802734 221.75628465 386.47802734 225.07080078 C387.13802734 225.07080078 387.79802734 225.07080078 388.47802734 225.07080078 C388.79255859 225.91642578 389.10708984 226.76205078 389.43115234 227.63330078 C391.56018467 233.27651901 393.72211737 238.7748407 396.51318359 244.12158203 C398.02716688 247.18019604 399.24424839 250.34543459 400.48193359 253.52392578 C401.11639065 255.14614539 401.76826723 256.76173623 402.44287109 258.36767578 C404.88116931 264.20392373 406.81803572 270.13543553 408.63989258 276.18652344 C409.65161958 279.52668276 410.73317911 282.80471873 411.98583984 286.06298828 C413.49076625 290.01000633 414.6829115 293.99639033 415.79052734 298.07080078 C415.9985498 298.83279785 416.20657227 299.59479492 416.42089844 300.37988281 C417.11406423 302.94158248 417.79693502 305.50586583 418.47802734 308.07080078 C418.7302002 309.01149414 418.98237305 309.9521875 419.2421875 310.92138672 C422.55619034 323.36689706 425.27071183 335.66597591 426.93505859 348.44189453 C427.08047427 351.87147682 427.08047427 351.87147682 428.47802734 353.07080078 C428.83913788 355.48762408 429.14491884 357.88952179 429.41552734 360.31689453 C429.5005249 361.04320572 429.58552246 361.76951691 429.6730957 362.51783752 C429.94551698 364.84753662 430.21234486 367.17782418 430.47802734 369.50830078 C430.74390167 371.83518103 431.01106901 374.16186695 431.28295898 376.48805237 C431.45239249 377.93778282 431.61834401 379.38792519 431.78051758 380.83848572 C432.18721104 384.57475689 432.18721104 384.57475689 433.47802734 388.07080078 C434.50630132 397.23995453 434.62698324 406.4521449 434.61083984 415.66845703 C434.61179657 416.90518661 434.6127533 418.1419162 434.61373901 419.41612244 C434.61441403 422.00845389 434.61260755 424.60078711 434.60839844 427.19311523 C434.60303594 431.12699225 434.60836909 435.06075535 434.61474609 438.99462891 C434.61408528 441.53173853 434.61280405 444.06884808 434.61083984 446.60595703 C434.61286407 447.76362076 434.61488831 448.92128448 434.61697388 450.11402893 C434.56126272 469.82109466 434.56126272 469.82109466 432.47802734 476.07080078 C432.14147309 478.85766768 431.84336443 481.63665472 431.57568359 484.43017578 C431.40592048 486.1202959 431.23599338 487.81039956 431.06591797 489.50048828 C430.8025212 492.15748788 430.5411244 494.81465481 430.28295898 497.47216797 C430.0319486 500.04209319 429.77300915 502.61112891 429.51318359 505.18017578 C429.4391481 505.96583923 429.36511261 506.75150269 429.28883362 507.56097412 C428.80814607 512.26466257 427.85617904 516.52900357 426.47802734 521.07080078 C426.11212147 522.89921844 425.77702588 524.73416415 425.47802734 526.57470703 C425.31302734 527.56277344 425.14802734 528.55083984 424.97802734 529.56884766 C424.64407317 531.61562146 424.31074211 533.66249702 423.97802734 535.70947266 C423.14547811 540.68850735 422.15436059 545.29818142 420.47802734 550.07080078 C419.76809979 552.99468506 419.1589477 555.93889524 418.54052734 558.88330078 C417.34079811 564.44675106 416.07706754 569.8737962 414.13818359 575.23486328 C413.09462356 578.13707167 412.29993133 581.09930175 411.47802734 584.07080078 C410.81802734 584.07080078 410.15802734 584.07080078 409.47802734 584.07080078 C409.37490234 585.20517578 409.27177734 586.33955078 409.16552734 587.50830078 C408.58692234 592.26477429 407.12729038 596.58978424 405.47802734 601.07080078 C404.81802734 601.07080078 404.15802734 601.07080078 403.47802734 601.07080078 C403.36201172 601.92931641 403.24599609 602.78783203 403.12646484 603.67236328 C402.46092389 607.16043939 401.41904672 610.15176441 400.10302734 613.44580078 C399.4359375 615.13382813 399.4359375 615.13382813 398.75537109 616.85595703 C398.12308594 618.44730469 398.12308594 618.44730469 397.47802734 620.07080078 C396.86908309 621.67315997 396.26395847 623.27698567 395.66552734 624.88330078 C395.07771484 626.46111328 395.07771484 626.46111328 394.47802734 628.07080078 C393.81802734 628.07080078 393.15802734 628.07080078 392.47802734 628.07080078 C392.12740234 629.28767578 391.77677734 630.50455078 391.41552734 631.75830078 C388.04601152 641.86684826 382.03147987 651.03493466 376.47802734 660.07080078 C376.01138672 660.86099609 375.54474609 661.65119141 375.06396484 662.46533203 C374.62310547 663.20138672 374.18224609 663.93744141 373.72802734 664.69580078 C373.34130859 665.34806641 372.95458984 666.00033203 372.55615234 666.67236328 C372.20037109 667.13384766 371.84458984 667.59533203 371.47802734 668.07080078 C370.81802734 668.07080078 370.15802734 668.07080078 369.47802734 668.07080078 C369.39552734 668.60705078 369.31302734 669.14330078 369.22802734 669.69580078 C368.21551269 672.90209717 366.4011852 675.3560993 364.47802734 678.07080078 C363.99333984 678.78107422 363.50865234 679.49134766 363.00927734 680.22314453 C355.8975698 690.57202083 348.36260431 701.18622381 339.47802734 710.07080078 C337.75488442 712.02479539 336.05207609 713.99482277 334.35693359 715.97314453 C332.15125048 718.43562235 329.82938658 720.74682273 327.47802734 723.07080078 C326.42527528 724.12221496 325.37322641 725.17433357 324.32177734 726.22705078 C317.63427734 732.91455078 317.63427734 732.91455078 316.00878906 734.53613281 C314.62720791 735.92123953 313.25881992 737.31947545 311.89208984 738.71923828 C309.48765829 741.06141918 306.99882057 743.13256753 304.35302734 745.19580078 C301.56009693 747.37751238 298.97357486 749.56235638 296.47802734 752.07080078 C294.80746064 753.48685651 293.11849449 754.88138036 291.41552734 756.25830078 C290.53767578 756.97373047 289.65982422 757.68916016 288.75537109 758.42626953 C286.47802734 760.07080078 286.47802734 760.07080078 284.47802734 760.07080078 C284.14802734 761.06080078 283.81802734 762.05080078 283.47802734 763.07080078 C279.14469401 766.07080078 279.14469401 766.07080078 276.47802734 766.07080078 C276.14802734 767.06080078 275.81802734 768.05080078 275.47802734 769.07080078 C273.52820199 770.47648883 271.51852157 771.80030438 269.47802734 773.07080078 C268.40552734 773.81330078 267.33302734 774.55580078 266.22802734 775.32080078 C263.47802734 777.07080078 263.47802734 777.07080078 261.47802734 777.07080078 C261.14802734 778.06080078 260.81802734 779.05080078 260.47802734 780.07080078 C258.49482716 781.10371754 256.49454929 782.10455068 254.47802734 783.07080078 C254.14802734 783.73080078 253.81802734 784.39080078 253.47802734 785.07080078 C251.78431217 786.06710382 250.08674622 787.0578184 248.36474609 788.00439453 C246.73097648 788.92782953 245.15929673 789.95951054 243.60302734 791.00830078 C237.86177497 794.79752735 232.13972238 798.19186116 225.47802734 800.07080078 C225.47802734 800.73080078 225.47802734 801.39080078 225.47802734 802.07080078 C219.85302734 805.07080078 219.85302734 805.07080078 216.47802734 805.07080078 C216.47802734 805.73080078 216.47802734 806.39080078 216.47802734 807.07080078 C215.21111227 807.74488386 213.93931986 808.40980575 212.66552734 809.07080078 C211.95783203 809.44205078 211.25013672 809.81330078 210.52099609 810.19580078 C208.47802734 811.07080078 208.47802734 811.07080078 205.47802734 811.07080078 C205.47802734 811.73080078 205.47802734 812.39080078 205.47802734 813.07080078 C204.04373733 813.74434578 202.60545678 814.40939779 201.16552734 815.07080078 C200.36501953 815.44205078 199.56451172 815.81330078 198.73974609 816.19580078 C196.47802734 817.07080078 196.47802734 817.07080078 193.47802734 817.07080078 C193.47802734 817.73080078 193.47802734 818.39080078 193.47802734 819.07080078 C190.60827315 820.39499122 187.73141096 821.70298728 184.85302734 823.00830078 C184.04478516 823.38148438 183.23654297 823.75466797 182.40380859 824.13916016 C178.08863711 826.08624973 174.24357799 827.58499222 169.47802734 828.07080078 C169.47802734 828.73080078 169.47802734 829.39080078 169.47802734 830.07080078 C168.53701172 830.39693359 167.59599609 830.72306641 166.62646484 831.05908203 C164.75861328 831.71457031 164.75861328 831.71457031 162.85302734 832.38330078 C161.62326172 832.81255859 160.39349609 833.24181641 159.12646484 833.68408203 C155.50017626 834.98720442 155.50017626 834.98720442 152.29052734 836.69580078 C148.567731 838.51583455 145.5766939 838.71746746 141.47802734 839.07080078 C141.47802734 839.73080078 141.47802734 840.39080078 141.47802734 841.07080078 C140.21087891 841.39693359 138.94373047 841.72306641 137.63818359 842.05908203 C135.93892284 842.50032654 134.23970645 842.94174195 132.54052734 843.38330078 C131.70972656 843.59664062 130.87892578 843.80998047 130.02294922 844.02978516 C125.90395376 845.10360888 121.85394503 846.25142958 117.82958984 847.64111328 C113.83695243 849.00478495 109.94170446 849.87420361 105.79052734 850.63330078 C102.30775977 851.27343563 99.00284522 851.88591349 95.66162109 853.06298828 C91.2509002 854.45926557 86.80324377 855.01030661 82.22802734 855.63330078 C80.43072279 855.8815121 78.63382193 856.13266984 76.83740234 856.38720703 C75.65355957 856.54878296 75.65355957 856.54878296 74.44580078 856.71362305 C72.40947256 856.98829359 72.40947256 856.98829359 70.47802734 858.07080078 C51.45987784 861.01158426 32.24826688 861.52985763 13.04394531 861.40698242 C9.08296537 861.38318023 5.12265575 861.38648661 1.16162109 861.39306641 C-18.2338437 861.37180398 -37.78620565 861.11583117 -56.78759766 856.85986328 C-62.1571247 855.72529794 -67.57255003 854.94083342 -73.00366211 854.16088867 C-77.38668361 853.50633888 -81.31971688 852.51909781 -85.52197266 851.07080078 C-88.44592772 850.36110987 -91.39006159 849.75177136 -94.33447266 849.13330078 C-99.82149045 847.94937308 -105.1638485 846.70612095 -110.44775391 844.78564453 C-112.98398874 843.9115749 -115.55122023 843.24688745 -118.14697266 842.57080078 C-121.30270788 841.73132247 -124.28953124 840.83903137 -127.27197266 839.50830078 C-130.67375693 838.00366543 -133.93411799 837.02268059 -137.52197266 836.07080078 C-137.52197266 835.41080078 -137.52197266 834.75080078 -137.52197266 834.07080078 C-138.75947266 833.84392578 -139.99697266 833.61705078 -141.27197266 833.38330078 C-147.3425468 832.03216986 -152.85623419 829.58890677 -158.52197266 827.07080078 C-159.39595703 826.68923828 -160.26994141 826.30767578 -161.17041016 825.91455078 C-177.07321609 818.84663703 -192.29793388 810.47433546 -207.52197266 802.07080078 C-207.52197266 801.41080078 -207.52197266 800.75080078 -207.52197266 800.07080078 C-208.36759766 799.84392578 -209.21322266 799.61705078 -210.08447266 799.38330078 C-213.4832429 798.08558851 -215.72926301 796.58904595 -218.59619141 794.43408203 C-222.04748787 791.99087216 -225.80818194 790.08127395 -229.52197266 788.07080078 C-232.67497718 786.28866779 -234.98352635 784.60924709 -237.52197266 782.07080078 C-238.40884766 781.55517578 -239.29572266 781.03955078 -240.20947266 780.50830078 C-241.35416016 779.79673828 -241.35416016 779.79673828 -242.52197266 779.07080078 C-242.52197266 778.41080078 -242.52197266 777.75080078 -242.52197266 777.07080078 C-243.18197266 776.86455078 -243.84197266 776.65830078 -244.52197266 776.44580078 C-253.18842868 772.4736751 -260.40200849 765.09634238 -267.48681641 758.84423828 C-268.83929613 757.6656859 -270.20661041 756.50393625 -271.58837891 755.35986328 C-272.22646484 754.83134766 -272.86455078 754.30283203 -273.52197266 753.75830078 C-274.09947266 753.28779297 -274.67697266 752.81728516 -275.27197266 752.33251953 C-276.52197266 751.07080078 -276.52197266 751.07080078 -276.52197266 749.07080078 C-277.24384766 748.84392578 -277.96572266 748.61705078 -278.70947266 748.38330078 C-282.10765569 746.79748203 -283.97428264 744.80956755 -286.52197266 742.07080078 C-287.28509766 741.32830078 -288.04822266 740.58580078 -288.83447266 739.82080078 C-291.21876509 737.38105969 -293.54041459 734.90757242 -295.83447266 732.38330078 C-296.53185547 731.61630859 -297.22923828 730.84931641 -297.94775391 730.05908203 C-299.52197266 728.07080078 -299.52197266 728.07080078 -299.52197266 726.07080078 C-300.14072266 725.82330078 -300.75947266 725.57580078 -301.39697266 725.32080078 C-303.92555892 723.83339709 -304.2403627 722.63402069 -305.52197266 720.07080078 C-306.18197266 719.74080078 -306.84197266 719.41080078 -307.52197266 719.07080078 C-310.0835805 717.78999686 -310.28658659 716.61424269 -311.52197266 714.07080078 C-312.38822266 713.20455078 -313.25447266 712.33830078 -314.14697266 711.44580078 C-314.93072266 710.66205078 -315.71447266 709.87830078 -316.52197266 709.07080078 C-316.52197266 708.41080078 -316.52197266 707.75080078 -316.52197266 707.07080078 C-317.14072266 706.84392578 -317.75947266 706.61705078 -318.39697266 706.38330078 C-321.13607474 704.69150243 -321.57221738 703.07835917 -322.52197266 700.07080078 C-323.18197266 700.07080078 -323.84197266 700.07080078 -324.52197266 700.07080078 C-328.52197266 694.65903608 -328.52197266 694.65903608 -328.52197266 692.07080078 C-329.51197266 691.74080078 -330.50197266 691.41080078 -331.52197266 691.07080078 C-335.39188022 686.9448688 -338.14131314 682.59343884 -339.52197266 677.07080078 C-340.18197266 677.07080078 -340.84197266 677.07080078 -341.52197266 677.07080078 C-345.52197266 670.32080078 -345.52197266 670.32080078 -345.52197266 668.07080078 C-346.51197266 667.74080078 -347.50197266 667.41080078 -348.52197266 667.07080078 C-350.03859502 664.77701819 -351.39249447 662.53625014 -352.70947266 660.13330078 C-353.0775 659.48683594 -353.44552734 658.84037109 -353.82470703 658.17431641 C-356.52197266 653.35526855 -356.52197266 653.35526855 -356.52197266 651.07080078 C-357.18197266 651.07080078 -357.84197266 651.07080078 -358.52197266 651.07080078 C-358.90567017 650.34098999 -358.90567017 650.34098999 -359.29711914 649.59643555 C-360.07164821 648.12346725 -360.84632027 646.65057413 -361.62109375 645.17773438 C-362.52147711 643.46598768 -363.42153655 641.75407056 -364.32128906 640.04199219 C-366.55151579 635.80135413 -368.78830235 631.56464655 -371.04931641 627.34033203 C-374.78957038 620.34678448 -378.48866626 613.40685899 -381.52197266 606.07080078 C-381.90740234 605.18779297 -382.29283203 604.30478516 -382.68994141 603.39501953 C-385.62676433 596.57255398 -388.0534408 589.68200959 -390.31103516 582.61376953 C-391.16260469 580.1222419 -392.04548032 577.78433103 -393.09619141 575.38330078 C-395.28245534 570.30398073 -396.52197266 565.65055196 -396.52197266 560.07080078 C-397.18197266 560.07080078 -397.84197266 560.07080078 -398.52197266 560.07080078 C-398.77591797 558.93642578 -399.02986328 557.80205078 -399.29150391 556.63330078 C-399.63886988 555.11240112 -399.98654258 553.59157149 -400.33447266 552.07080078 C-400.50011719 551.32701172 -400.66576172 550.58322266 -400.83642578 549.81689453 C-401.70223463 546.05961086 -402.6869104 542.48328062 -404.09619141 538.89111328 C-405.38873223 535.58436641 -406.07856835 532.48379762 -406.52197266 528.94580078 C-407.12101663 524.48632604 -407.92363094 520.16072804 -408.95166016 515.78173828 C-410.82269093 507.19386616 -411.73787086 498.55434757 -412.64697266 489.82080078 C-412.89892507 487.43857389 -413.15302025 485.05662779 -413.41159058 482.67510986 C-413.57044582 481.20871394 -413.7253451 479.74188258 -413.87576294 478.27459717 C-414.24489341 474.55188989 -414.24489341 474.55188989 -415.52197266 471.07080078 C-416.50514213 463.24071916 -416.72583538 455.32819741 -416.90869141 447.44580078 C-416.93421585 446.37821533 -416.9597403 445.31062988 -416.98603821 444.21069336 C-417.03766084 441.96537995 -417.08712888 439.72001605 -417.13452148 437.47460938 C-417.20868546 434.10655044 -417.29974348 430.73921195 -417.39111328 427.37158203 C-418.19023202 393.40731951 -418.19023202 393.40731951 -414.52197266 386.07080078 C-414.17019357 383.76003345 -413.86599461 381.44195691 -413.58447266 379.12158203 C-413.4994751 378.4307402 -413.41447754 377.73989838 -413.3269043 377.02812195 C-413.0551164 374.81359027 -412.78838149 372.59848541 -412.52197266 370.38330078 C-412.2545342 368.18610559 -411.98605236 365.98904111 -411.71704102 363.79203796 C-411.47184319 361.78532325 -411.22926025 359.77828954 -410.98681641 357.77124023 C-410.21966394 351.6642392 -409.25611853 345.97974228 -407.52197266 340.07080078 C-406.85459702 337.24654447 -406.25349903 334.40866516 -405.64697266 331.57080078 C-403.85377173 323.32770961 -401.74930862 315.20632838 -399.52197266 307.07080078 C-399.18357013 305.73874499 -398.84756207 304.40604624 -398.52197266 303.07080078 C-397.86197266 303.07080078 -397.20197266 303.07080078 -396.52197266 303.07080078 C-396.41884766 302.14267578 -396.31572266 301.21455078 -396.20947266 300.25830078 C-395.48434943 295.07580246 -393.9652826 290.09061462 -392.52197266 285.07080078 C-391.86197266 285.07080078 -391.20197266 285.07080078 -390.52197266 285.07080078 C-390.40982422 284.06662109 -390.29767578 283.06244141 -390.18212891 282.02783203 C-389.61270646 278.07950633 -388.40199936 274.4657732 -386.95947266 270.75830078 C-386.6969873 270.07316406 -386.43450195 269.38802734 -386.1640625 268.68212891 C-380.74997367 254.76826626 -374.30227636 241.3607974 -367.52197266 228.07080078 C-366.52016393 226.07170617 -365.51951641 224.07202702 -364.52197266 222.07080078 C-363.86197266 222.07080078 -363.20197266 222.07080078 -362.52197266 222.07080078 C-362.41884766 221.36955078 -362.31572266 220.66830078 -362.20947266 219.94580078 C-361.42838263 216.67942431 -360.10138522 214.02361558 -358.52197266 211.07080078 C-357.86197266 211.07080078 -357.20197266 211.07080078 -356.52197266 211.07080078 C-356.08884766 209.70955078 -356.08884766 209.70955078 -355.64697266 208.32080078 C-354.7566549 205.7487717 -353.80702853 203.45733312 -352.52197266 201.07080078 C-351.86197266 201.07080078 -351.20197266 201.07080078 -350.52197266 201.07080078 C-350.31572266 200.26642578 -350.10947266 199.46205078 -349.89697266 198.63330078 C-348.35861605 194.64755865 -346.29042484 191.51542153 -343.86181641 188.02392578 C-342.48769189 186.11656129 -342.48769189 186.11656129 -341.52197266 184.07080078 C-340.86197266 184.07080078 -340.20197266 184.07080078 -339.52197266 184.07080078 C-339.23322266 183.30767578 -338.94447266 182.54455078 -338.64697266 181.75830078 C-337.52197266 179.07080078 -337.52197266 179.07080078 -335.52197266 176.07080078 C-334.86197266 176.07080078 -334.20197266 176.07080078 -333.52197266 176.07080078 C-333.25384766 175.26642578 -332.98572266 174.46205078 -332.70947266 173.63330078 C-332.31759766 172.78767578 -331.92572266 171.94205078 -331.52197266 171.07080078 C-330.53197266 170.74080078 -329.54197266 170.41080078 -328.52197266 170.07080078 C-327.83821192 168.41107385 -327.17484964 166.74291737 -326.52197266 165.07080078 C-325.12332517 163.19153698 -323.65949106 161.35969298 -322.14697266 159.57080078 C-320.99068359 158.19408203 -320.99068359 158.19408203 -319.81103516 156.78955078 C-319.05564453 155.89236328 -318.30025391 154.99517578 -317.52197266 154.07080078 C-316.80396484 153.16974609 -316.08595703 152.26869141 -315.34619141 151.34033203 C-313.52731235 149.07744395 -311.57434686 147.12317499 -309.52197266 145.07080078 C-307.73731009 142.98323677 -305.96341764 140.88803652 -304.20556641 138.77783203 C-302.52197266 137.07080078 -302.52197266 137.07080078 -299.52197266 136.07080078 C-299.23322266 135.49330078 -298.94447266 134.91580078 -298.64697266 134.32080078 C-296.80240304 130.63166156 -294.05217485 127.81404185 -290.33447266 126.00830078 C-288.34305109 125.20377917 -288.34305109 125.20377917 -287.52197266 123.07080078 C-286.25774501 120.5423455 -284.99351737 120.30657314 -282.52197266 119.07080078 C-282.26029297 118.48298828 -281.99861328 117.89517578 -281.72900391 117.28955078 C-280.08776769 114.27265055 -277.89556851 112.69350711 -275.20947266 110.57080078 C-274.26458984 109.81798828 -273.31970703 109.06517578 -272.34619141 108.28955078 C-270.53882635 106.8696568 -268.72914447 105.45270384 -266.91650391 104.03955078 C-264.54154576 102.15529621 -264.54154576 102.15529621 -262.64306641 100.17236328 C-259.80265909 97.35811073 -256.72210873 94.91887958 -253.58447266 92.44580078 C-252.97667969 91.95595703 -252.36888672 91.46611328 -251.74267578 90.96142578 C-248.4648259 88.37309124 -245.55248261 86.37096528 -241.52197266 85.07080078 C-241.52197266 84.41080078 -241.52197266 83.75080078 -241.52197266 83.07080078 C-239.90478516 81.80908203 -239.90478516 81.80908203 -237.64697266 80.38330078 C-234.25804557 78.20167897 -230.93104335 75.97004339 -227.64697266 73.63330078 C-211.00592479 61.92485681 -193.03317818 51.42642857 -174.6730957 42.65795898 C-171.74677566 41.2488727 -169.07893558 39.77066109 -166.38525391 37.94580078 C-163.70712632 36.19204739 -161.71792301 35.3360212 -158.64697266 34.57080078 C-155.29559284 33.65633133 -152.3910749 32.59577248 -149.33447266 30.94580078 C-145.69441936 29.00345055 -142.62085903 28.41237465 -138.52197266 28.07080078 C-138.52197266 27.41080078 -138.52197266 26.75080078 -138.52197266 26.07080078 C-137.66474609 25.81685547 -136.80751953 25.56291016 -135.92431641 25.30126953 C-128.84033681 23.18706059 -128.84033681 23.18706059 -121.95947266 20.50830078 C-117.87708823 18.80112184 -113.78842381 17.8420367 -109.49072266 16.82080078 C-106.97358332 16.1848919 -104.5878105 15.44513075 -102.14697266 14.57080078 C-97.15582872 12.82800646 -92.03203048 11.84552607 -86.85400391 10.81689453 C-83.57263247 10.15176342 -83.57263247 10.15176342 -80.70556641 9.07470703 C-76.44854989 7.73231041 -72.1861021 7.17393258 -67.77197266 6.57080078 C-62.65303998 5.85853339 -57.57673469 5.11008252 -52.51806641 4.04345703 C-47.47620183 3.00829398 -42.45955858 2.44453845 -37.33447266 2.00830078 C-36.39031494 1.92596191 -35.44615723 1.84362305 -34.47338867 1.75878906 C-22.99417102 0.80226651 -11.51213715 0.32318681 0 0 Z M-35.11669922 102.69384766 C-38.15113864 103.16940333 -41.19139001 103.59601536 -44.23291016 104.02392578 C-46.68343512 104.37285514 -49.1339559 104.72181379 -51.58447266 105.07080078 C-52.77516357 105.23676758 -53.96585449 105.40273437 -55.19262695 105.57373047 C-56.3235376 105.73776367 -57.45444824 105.90179688 -58.61962891 106.07080078 C-59.63549072 106.21517578 -60.65135254 106.35955078 -61.69799805 106.50830078 C-64.51092706 107.06860064 -66.8844346 107.96338163 -69.52197266 109.07080078 C-70.82188757 109.42587087 -72.13094936 109.74949888 -73.44775391 110.03564453 C-74.16253906 110.19613281 -74.87732422 110.35662109 -75.61376953 110.52197266 C-77.08224009 110.84356383 -78.55098662 111.16389765 -80.02001953 111.48291016 C-84.30396441 112.44727802 -88.34150713 113.6488037 -92.42944336 115.25170898 C-94.70539172 116.14259765 -96.99907173 116.97132372 -99.29931641 117.79736328 C-110.28744566 121.81337772 -120.58748096 126.39671935 -130.78979492 132.11914062 C-133.32810989 133.51369337 -135.93182091 134.77572491 -138.52197266 136.07080078 C-144.80630064 139.6500907 -150.88735927 143.5625059 -156.97119141 147.46923828 C-159.12603934 148.82220559 -161.29497115 150.09243363 -163.52197266 151.32080078 C-166.39475085 152.82328601 -166.39475085 152.82328601 -167.89306641 154.45361328 C-169.94924173 156.49499598 -172.20323237 158.04751958 -174.58447266 159.69580078 C-175.46232422 160.30681641 -176.34017578 160.91783203 -177.24462891 161.54736328 C-179.52197266 163.07080078 -179.52197266 163.07080078 -181.52197266 164.07080078 C-181.52197266 164.73080078 -181.52197266 165.39080078 -181.52197266 166.07080078 C-182.22064453 166.28736328 -182.91931641 166.50392578 -183.63916016 166.72705078 C-187.24855277 168.40947769 -189.81638489 170.83903653 -192.64697266 173.57080078 C-195.50254394 176.28604915 -198.22887998 178.87540566 -201.52197266 181.07080078 C-201.52197266 181.73080078 -201.52197266 182.39080078 -201.52197266 183.07080078 C-202.08271484 183.31572266 -202.64345703 183.56064453 -203.22119141 183.81298828 C-210.18300444 187.618937 -215.82051586 194.17487069 -220.88525391 200.18408203 C-222.4781299 202.02026128 -224.14709421 203.69749111 -225.89697266 205.38330078 C-230.51941379 209.92207782 -234.51035982 214.99408919 -238.52197266 220.07080078 C-239.10462891 220.79912109 -239.68728516 221.52744141 -240.28759766 222.27783203 C-241.71099326 223.98256071 -241.71099326 223.98256071 -241.52197266 226.07080078 C-242.18197266 226.07080078 -242.84197266 226.07080078 -243.52197266 226.07080078 C-245.15627016 228.16529759 -246.663645 230.24862169 -248.14697266 232.44580078 C-248.77732422 233.35072266 -248.77732422 233.35072266 -249.42041016 234.27392578 C-251.75557588 237.38793949 -251.75557588 237.38793949 -252.52197266 241.07080078 C-253.18197266 241.07080078 -253.84197266 241.07080078 -254.52197266 241.07080078 C-255.98200024 243.08121919 -255.98200024 243.08121919 -257.39697266 245.63330078 C-257.92291016 246.54208984 -258.44884766 247.45087891 -258.99072266 248.38720703 C-259.49603516 249.27279297 -260.00134766 250.15837891 -260.52197266 251.07080078 C-260.94478516 251.78107422 -261.36759766 252.49134766 -261.80322266 253.22314453 C-263.85221859 256.42709789 -263.85221859 256.42709789 -264.52197266 260.07080078 C-265.18197266 260.07080078 -265.84197266 260.07080078 -266.52197266 260.07080078 C-268.88107618 264.33452888 -268.88107618 264.33452888 -269.52197266 269.07080078 C-270.18197266 269.07080078 -270.84197266 269.07080078 -271.52197266 269.07080078 C-272.19316815 270.52705528 -272.85879073 271.98587945 -273.52197266 273.44580078 C-273.89322266 274.25791016 -274.26447266 275.07001953 -274.64697266 275.90673828 C-275.64692278 277.99078511 -275.64692278 277.99078511 -275.52197266 280.07080078 C-276.18197266 280.07080078 -276.84197266 280.07080078 -277.52197266 280.07080078 C-283.72978207 291.59738255 -283.72978207 291.59738255 -286.52197266 304.07080078 C-287.18197266 304.07080078 -287.84197266 304.07080078 -288.52197266 304.07080078 C-288.84810547 305.06080078 -289.17423828 306.05080078 -289.51025391 307.07080078 C-293.48416338 319.08845114 -293.48416338 319.08845114 -295.14697266 323.38330078 C-296.53692415 327.11089796 -297.68276982 330.85347562 -298.77587891 334.67626953 C-299.52197266 337.07080078 -299.52197266 337.07080078 -300.49072266 339.37158203 C-301.8246407 342.86301144 -302.63780133 346.43366082 -303.45947266 350.07080078 C-303.6320459 350.82192139 -303.80461914 351.57304199 -303.98242188 352.34692383 C-304.3324602 353.87093437 -304.68110825 355.39526495 -305.02832031 356.91992188 C-305.46747368 358.8333448 -305.92141693 360.74335969 -306.37744141 362.65283203 C-307.89152812 369.00892194 -309.1278413 375.34170992 -310.09228516 381.80517578 C-310.52197266 384.07080078 -310.52197266 384.07080078 -311.52197266 385.07080078 C-315.45903784 413.70679835 -315.14809677 442.90198338 -312.58447266 471.63330078 C-312.50994873 472.4841626 -312.4354248 473.33502441 -312.35864258 474.21166992 C-311.88231647 479.04547983 -310.93001142 483.40431214 -309.52197266 488.07080078 C-309.03684561 490.5657399 -308.57967173 493.06623676 -308.14697266 495.57080078 C-306.31675804 505.74302877 -303.78236862 515.69684406 -300.38134766 525.46533203 C-298.24533957 531.94132017 -296.42391489 538.52300756 -294.52197266 545.07080078 C-293.86197266 545.07080078 -293.20197266 545.07080078 -292.52197266 545.07080078 C-292.18166016 546.95798828 -292.18166016 546.95798828 -291.83447266 548.88330078 C-290.52729802 554.68895915 -288.13966846 559.74969118 -285.52197266 565.07080078 C-285.21952637 565.68938965 -284.91708008 566.30797852 -284.60546875 566.9453125 C-279.06040298 578.26521961 -273.55763668 589.47008578 -266.18212891 599.73095703 C-263.29582048 603.79895409 -260.71686128 608.05507562 -258.17431641 612.34423828 C-257.51109375 613.44638672 -257.51109375 613.44638672 -256.83447266 614.57080078 C-256.43873047 615.24111328 -256.04298828 615.91142578 -255.63525391 616.60205078 C-255.26787109 617.08673828 -254.90048828 617.57142578 -254.52197266 618.07080078 C-253.86197266 618.07080078 -253.20197266 618.07080078 -252.52197266 618.07080078 C-252.29509766 618.77205078 -252.06822266 619.47330078 -251.83447266 620.19580078 C-250.19988469 623.7763268 -248.10616916 626.0989748 -245.52197266 629.07080078 C-244.53197266 630.55580078 -244.53197266 630.55580078 -243.52197266 632.07080078 C-242.86197266 632.07080078 -242.20197266 632.07080078 -241.52197266 632.07080078 C-241.29767578 632.77849609 -241.07337891 633.48619141 -240.84228516 634.21533203 C-239.2483474 637.66257612 -237.00675823 640.06824125 -234.39697266 642.75830078 C-230.84563752 646.50819021 -227.48752685 650.28370348 -224.33447266 654.38330078 C-220.80844909 658.8788013 -216.92295182 662.45449232 -212.52197266 666.07080078 C-211.10086018 667.29482467 -209.68413721 668.52396436 -208.27197266 669.75830078 C-207.64806641 670.29841797 -207.02416016 670.83853516 -206.38134766 671.39501953 C-205.08992298 672.55892959 -203.84313523 673.77353103 -202.63525391 675.02392578 C-200.23585705 677.34792569 -197.68720279 679.2071893 -194.95947266 681.13330078 C-191.89498705 683.29964678 -189.16781021 685.42496322 -186.52197266 688.07080078 C-183.92281728 689.26108062 -183.92281728 689.26108062 -181.52197266 690.07080078 C-181.52197266 690.73080078 -181.52197266 691.39080078 -181.52197266 692.07080078 C-179.98138484 693.35883503 -179.98138484 693.35883503 -177.89697266 694.63330078 C-177.08744141 695.15279297 -176.27791016 695.67228516 -175.44384766 696.20751953 C-174.47962891 696.82240234 -173.51541016 697.43728516 -172.52197266 698.07080078 C-171.31771234 698.86726391 -170.11465154 699.66554276 -168.91259766 700.46533203 C-167.65761703 701.29250053 -166.40240904 702.11932417 -165.14697266 702.94580078 C-164.54030762 703.3512915 -163.93364258 703.75678223 -163.30859375 704.17456055 C-159.72340406 706.54125466 -159.72340406 706.54125466 -155.52197266 707.07080078 C-155.52197266 707.73080078 -155.52197266 708.39080078 -155.52197266 709.07080078 C-136.73419993 719.3534828 -117.47382209 727.97454647 -97.38037109 735.38183594 C-95.70792317 736.00186327 -94.04039541 736.63512363 -92.37353516 737.27001953 C-87.48462402 739.11192022 -82.73329058 740.62078337 -77.59228516 741.57861328 C-75.52197266 742.07080078 -75.52197266 742.07080078 -73.30737305 743.01171875 C-67.7080722 745.14071928 -61.70466194 745.95138369 -55.83447266 747.07080078 C-55.13667694 747.20497406 -54.43888123 747.33914734 -53.71994019 747.47738647 C-43.02126213 749.52569011 -32.38751915 751.22570272 -21.52197266 752.07080078 C-20.32830078 752.18037109 -19.13462891 752.28994141 -17.90478516 752.40283203 C10.29527264 754.638566 43.03142707 754.96679725 70.47802734 747.07080078 C74.60929983 746.18704463 78.76533692 745.42691476 82.91943359 744.65869141 C88.62734746 743.56168805 94.00918724 742.03081282 99.47802734 740.07080078 C108.05623491 737.1063966 116.76435105 734.60186864 125.47802734 732.07080078 C125.47802734 731.41080078 125.47802734 730.75080078 125.47802734 730.07080078 C126.30818359 729.97283203 127.13833984 729.87486328 127.99365234 729.77392578 C132.05358623 728.95465661 135.4735941 727.52572769 139.22802734 725.82080078 C139.93032471 725.50796143 140.63262207 725.19512207 141.35620117 724.87280273 C146.09128697 722.74699013 150.75985648 720.51027514 155.36474609 718.11376953 C157.69098896 716.96569773 160.05960897 716.00682611 162.47802734 715.07080078 C162.47802734 714.41080078 162.47802734 713.75080078 162.47802734 713.07080078 C163.10451172 712.86583984 163.73099609 712.66087891 164.37646484 712.44970703 C165.19373047 712.18029297 166.01099609 711.91087891 166.85302734 711.63330078 C168.07119141 711.23304688 168.07119141 711.23304688 169.31396484 710.82470703 C171.48834533 710.11900349 171.48834533 710.11900349 173.47802734 709.07080078 C173.47802734 708.41080078 173.47802734 707.75080078 173.47802734 707.07080078 C177.93302734 705.58580078 177.93302734 705.58580078 182.47802734 704.07080078 C182.47802734 703.41080078 182.47802734 702.75080078 182.47802734 702.07080078 C183.26177734 701.88517578 184.04552734 701.69955078 184.85302734 701.50830078 C189.18782325 699.78932999 192.55300237 697.36464474 196.30615234 694.62939453 C198.47802734 693.07080078 198.47802734 693.07080078 200.47802734 692.07080078 C200.47802734 691.41080078 200.47802734 690.75080078 200.47802734 690.07080078 C201.24115234 689.78205078 202.00427734 689.49330078 202.79052734 689.19580078 C205.62832042 688.10811065 205.62832042 688.10811065 208.47802734 686.07080078 C208.47802734 685.41080078 208.47802734 684.75080078 208.47802734 684.07080078 C209.18958984 683.83103516 209.90115234 683.59126953 210.63427734 683.34423828 C213.91680338 681.87431591 216.23414548 680.01576831 218.97802734 677.69580078 C219.89583984 676.92494141 220.81365234 676.15408203 221.75927734 675.35986328 C222.65646484 674.60447266 223.55365234 673.84908203 224.47802734 673.07080078 C225.41646484 672.35666016 226.35490234 671.64251953 227.32177734 670.90673828 C228.03333984 670.30087891 228.74490234 669.69501953 229.47802734 669.07080078 C229.47802734 668.41080078 229.47802734 667.75080078 229.47802734 667.07080078 C230.19990234 666.84392578 230.92177734 666.61705078 231.66552734 666.38330078 C235.95554321 664.38129338 238.55427952 661.22548556 241.47802734 657.57080078 C243.64357061 654.8638717 246.02730496 652.52152316 248.47802734 650.07080078 C250.02467213 648.30543855 251.54182277 646.51891544 253.04833984 644.71923828 C254.47802734 643.07080078 254.47802734 643.07080078 255.82958984 641.77001953 C258.33660168 639.18577747 260.51256422 636.34114467 262.72802734 633.50830078 C263.21819336 632.88205811 263.70835937 632.25581543 264.21337891 631.6105957 C276.014264 618.2770775 276.014264 618.2770775 282.47802734 603.07080078 C283.13802734 603.07080078 283.79802734 603.07080078 284.47802734 603.07080078 C284.74429932 602.55807617 285.01057129 602.04535156 285.28491211 601.51708984 C294.08592032 584.6006695 294.08592032 584.6006695 298.29052734 577.63330078 C301.64198345 572.000337 304.06173065 566.14969457 306.47802734 560.07080078 C307.13556546 558.56677682 307.80162335 557.06643512 308.47802734 555.57080078 C309.14618153 554.07146279 309.81277451 552.57142835 310.47802734 551.07080078 C310.85701172 550.21615234 311.23599609 549.36150391 311.62646484 548.48095703 C319.36363224 530.51791553 324.68577913 511.65629976 328.54833984 492.51611328 C329.11513648 489.71400302 329.76240892 486.99973912 330.49755859 484.23095703 C331.82675533 479.01998964 332.40480788 473.71530352 333.04052734 468.38330078 C333.23557861 466.79243652 333.23557861 466.79243652 333.43457031 465.16943359 C334.22359952 458.60591671 334.88834773 452.06235975 335.26708984 445.46142578 C335.47802734 443.07080078 335.47802734 443.07080078 335.97631836 441.25170898 C339.45564782 426.12720772 336.41440162 407.87022919 334.60302734 392.57080078 C334.51598541 391.83417206 334.42894348 391.09754333 334.33926392 390.33859253 C332.02631553 371.06689239 327.93088059 352.80476438 322.47802734 334.19580078 C322.14593262 333.0548999 321.81383789 331.91399902 321.47167969 330.73852539 C319.47679707 324.01817268 317.21518117 317.5236913 314.47802734 311.07080078 C313.73939453 309.29769531 313.73939453 309.29769531 312.98583984 307.48876953 C309.99687293 300.50606999 306.90675849 293.58970094 303.67724609 286.71533203 C302.47802734 284.07080078 302.47802734 284.07080078 301.47802734 281.07080078 C300.81802734 281.07080078 300.15802734 281.07080078 299.47802734 281.07080078 C299.32333984 280.26642578 299.32333984 280.26642578 299.16552734 279.44580078 C297.61816148 274.10035506 294.54006916 269.43813978 291.60302734 264.75830078 C289.32584355 261.12820191 287.14915307 257.49599239 285.10302734 253.73095703 C282.44768967 248.90969088 279.44522746 244.37042189 276.35302734 239.82080078 C275.30769936 238.27463998 274.26339813 236.72778441 273.22021484 235.18017578 C272.7377832 234.46539062 272.25535156 233.75060547 271.75830078 233.01416016 C270.72374367 231.44377979 269.75083951 229.83289033 268.79833984 228.21142578 C267.51587132 226.13215729 266.23227754 224.75159715 264.47802734 223.07080078 C263.00427184 221.31278158 261.54749215 219.5404647 260.10302734 217.75830078 C259.31025391 216.78634766 258.51748047 215.81439453 257.70068359 214.81298828 C256.40947245 213.21996504 255.12302805 211.62300791 253.84912109 210.01611328 C252.76734478 208.66631478 251.62940559 207.36174002 250.47802734 206.07080078 C249.81802734 206.07080078 249.15802734 206.07080078 248.47802734 206.07080078 C248.14738281 205.26642578 248.14738281 205.26642578 247.81005859 204.44580078 C246.02248404 201.25857108 243.64115356 198.72724963 241.16552734 196.07080078 C240.45493164 195.28962891 240.45493164 195.28962891 239.72998047 194.49267578 C236.84518311 191.36714978 233.85163415 188.67949505 230.47802734 186.07080078 C228.19633 183.84342956 225.96316812 181.59187791 223.79052734 179.25830078 C222.52584463 177.84716301 222.52584463 177.84716301 220.47802734 178.07080078 C220.14802734 177.08080078 219.81802734 176.09080078 219.47802734 175.07080078 C217.82731338 174.04468129 216.15832728 173.04771935 214.47802734 172.07080078 C213.92888672 171.50619141 213.37974609 170.94158203 212.81396484 170.35986328 C209.5897651 167.2003632 206.02922478 164.57975008 202.41552734 161.88330078 C201.33561523 161.06442383 201.33561523 161.06442383 200.23388672 160.22900391 C199.53972656 159.70886719 198.84556641 159.18873047 198.13037109 158.65283203 C197.50122803 158.18079346 196.87208496 157.70875488 196.22387695 157.22241211 C194.368763 155.890825 194.368763 155.890825 191.47802734 155.07080078 C190.47224714 154.07661459 189.47328809 153.07551768 188.47802734 152.07080078 C186.73530656 150.84241517 184.96104933 149.65813022 183.16552734 148.50830078 C182.24126953 147.90888672 181.31701172 147.30947266 180.36474609 146.69189453 C177.45645207 145.05868476 174.66867018 144.01809651 171.47802734 143.07080078 C171.47802734 142.41080078 171.47802734 141.75080078 171.47802734 141.07080078 C170.30240234 140.57580078 169.12677734 140.08080078 167.91552734 139.57080078 C163.49589191 137.61891132 159.27982842 135.37869926 155.04052734 133.07080078 C149.31413932 129.96770603 143.59262848 127.33279005 137.47802734 125.07080078 C135.8722378 124.42901318 134.26810613 123.7830643 132.66552734 123.13330078 C130.9364946 122.44546404 129.20731893 121.75798652 127.47802734 121.07080078 C126.47900391 120.66732422 125.47998047 120.26384766 124.45068359 119.84814453 C112.32824962 115.04325252 100.19234055 111.85450181 87.40551758 109.46508789 C86.5941333 109.31177002 85.78274902 109.15845215 84.94677734 109.00048828 C84.22941406 108.86884277 83.51205078 108.73719727 82.77294922 108.6015625 C80.47802734 108.07080078 80.47802734 108.07080078 77.77148438 107.09326172 C73.64175337 105.8111777 69.59870497 105.28763565 65.31396484 104.78173828 C64.42016113 104.67327072 63.52635742 104.56480316 62.60546875 104.45304871 C59.68916679 104.10605615 56.77154831 103.77358431 53.85302734 103.44580078 C52.36286102 103.27671707 52.36286102 103.27671707 50.84259033 103.10421753 C36.83553206 101.54417237 22.9487197 100.58966995 8.85302734 100.63330078 C8.08400085 100.63344177 7.31497437 100.63358276 6.52264404 100.63372803 C-1.91135678 100.25329627 -1.91135678 100.25329627 -9.52197266 103.07080078 C-9.52197266 102.41080078 -9.52197266 101.75080078 -9.52197266 101.07080078 C-18.24883699 100.83207197 -26.50829885 101.28512364 -35.11669922 102.69384766 Z " fill="#FEFEFE" transform="translate(530.52197265625,105.92919921875)"/>
<path d="M0 0 C0.79148437 0.22945313 1.58296875 0.45890625 2.3984375 0.6953125 C3.21570313 0.94023437 4.03296875 1.18515625 4.875 1.4375 C6.01582031 1.77587891 6.01582031 1.77587891 7.1796875 2.12109375 C8.08074219 2.55615234 8.08074219 2.55615234 9 3 C9.33 3.99 9.66 4.98 10 6 C10.66 6 11.32 6 12 6 C14.37512093 11.63055901 15.44863701 16.15180602 15.4765625 22.234375 C15.49993179 23.37329193 15.49993179 23.37329193 15.52377319 24.53521729 C15.57082256 26.94013432 15.5988457 29.3447735 15.625 31.75 C15.66191508 34.14073693 15.70298054 36.53133159 15.74765015 38.92193604 C15.774123 40.40016289 15.79577684 41.878489 15.81118774 43.35687256 C15.86930606 47.2873586 16.09676062 51.15202406 16.47973633 55.06445312 C17.36790732 65.25915485 17.36028565 75.50818357 17.53515625 85.734375 C17.57867846 88.14931872 17.62227488 90.56426111 17.66593933 92.97920227 C17.79439108 100.21789927 17.91344345 107.45673121 18.02946663 114.69563532 C18.06245862 116.74742678 18.09586788 118.79921107 18.12937927 120.85099411 C18.85920464 165.65597289 19.21889446 210.4576044 19.24494404 255.26850569 C19.24814134 260.54445103 19.25594038 265.82037608 19.26541138 271.09631348 C19.27769847 278.22662434 19.27754481 285.35685863 19.26870155 292.48717308 C19.26667829 295.10818622 19.26778769 297.72920397 19.27229881 300.350214 C19.27741717 303.94588418 19.26978824 307.54131069 19.25878906 311.13696289 C19.26284287 312.16941509 19.26689669 313.20186729 19.27107334 314.26560593 C19.16419707 332.81797246 13.53249558 353.50321021 0 367 C-0.66 367 -1.32 367 -2 367 C-2.26167969 367.57492187 -2.52335937 368.14984375 -2.79296875 368.7421875 C-5.37816704 373.57793059 -9.03895961 377.99861768 -13.9375 380.5 C-14.618125 380.665 -15.29875 380.83 -16 381 C-16 381.66 -16 382.32 -16 383 C-20.78090071 387.00613024 -25.86799698 390.5476835 -32 392 C-32 392.66 -32 393.32 -32 394 C-33.74692795 394.67467562 -35.49768525 395.33944156 -37.25 396 C-38.22453125 396.37125 -39.1990625 396.7425 -40.203125 397.125 C-43 398 -43 398 -47 398 C-47 398.66 -47 399.32 -47 400 C-50.12303802 400.51277829 -53.24866322 401.00776825 -56.375 401.5 C-57.24511719 401.64308594 -58.11523438 401.78617188 -59.01171875 401.93359375 C-76.82949268 404.70524747 -95.71768656 403.00706708 -112 395 C-114.72265625 392.984375 -114.72265625 392.984375 -117 391 C-117.62003906 390.50757813 -118.24007812 390.01515625 -118.87890625 389.5078125 C-124.9696416 384.50521316 -129.06763296 378.3153199 -132 371 C-132 370.01 -132 369.02 -132 368 C-132.66 368 -133.32 368 -134 368 C-138.83285678 350.56719517 -139.30386989 330.36385977 -134 313 C-133.34 313 -132.68 313 -132 313 C-131.89945313 312.12085938 -131.79890625 311.24171875 -131.6953125 310.3359375 C-129.2440602 298.57543492 -118.35302982 288.85047642 -109.4296875 281.56640625 C-106.88540868 279.9261236 -104.98022193 279.37650491 -102 279 C-102 278.34 -102 277.68 -102 277 C-83.65045236 267.8764819 -66.14096304 265.58108867 -45.765625 265.17578125 C-41.10431279 265.07606997 -36.61021805 264.68485123 -32 264 C-30.87326252 258.58356553 -30.8588114 253.33922994 -30.87060547 247.83544922 C-30.86885315 246.82662689 -30.86710083 245.81780457 -30.86529541 244.77841187 C-30.86090482 241.45381943 -30.86380463 238.12928045 -30.8671875 234.8046875 C-30.86651376 232.49113963 -30.86554316 230.17759182 -30.86428833 227.86404419 C-30.86281523 223.02052129 -30.86495387 218.17701685 -30.86962891 213.33349609 C-30.87533233 207.1214495 -30.87204084 200.90944606 -30.86605644 194.69740105 C-30.86244582 189.9225329 -30.86359162 185.14767501 -30.86618423 180.37280655 C-30.86685178 178.08183919 -30.86603107 175.79087091 -30.86370468 173.49990463 C-30.86116929 170.30183181 -30.86503108 167.10382929 -30.87060547 163.90576172 C-30.86756912 162.48275757 -30.86756912 162.48275757 -30.86447144 161.03100586 C-30.86729126 160.15910614 -30.87011108 159.28720642 -30.87301636 158.3888855 C-30.87339338 157.63343382 -30.87377041 156.87798214 -30.87415886 156.09963799 C-31.00307102 153.94876056 -31.45742493 152.07996319 -32 150 C-32.13742469 147.60888115 -32.22464917 145.2147083 -32.28125 142.8203125 C-32.29965942 142.12992889 -32.31806885 141.43954529 -32.33703613 140.72824097 C-32.39557279 138.52724417 -32.44845146 136.32617085 -32.5 134.125 C-32.56808694 131.23162314 -32.64181584 128.33846607 -32.71875 125.4453125 C-32.74904297 124.16156738 -32.77933594 122.87782227 -32.81054688 121.55517578 C-32.98437831 118.29314823 -33.38984042 115.20580806 -34 112 C-40.2325931 111.86370075 -45.99524972 112.28152825 -52.125 113.375 C-52.88425781 113.50132812 -53.64351562 113.62765625 -54.42578125 113.7578125 C-57.84979861 114.34714423 -61.11621678 115.03388015 -64.45703125 116.0078125 C-69.58924388 117.44505837 -74.79142092 118.10567913 -80.06054688 118.85546875 C-84.59360654 119.52944884 -88.65065544 120.52223042 -93 122 C-97.19679775 122.94188584 -101.42975492 123.70442446 -105.65625 124.5 C-110.25708194 125.38690736 -114.55467788 126.50262834 -119 128 C-122.98341119 128.93043181 -127.00021009 129.70144151 -131.01171875 130.5 C-135.47589941 131.40845012 -139.67489931 132.55439801 -144 134 C-146.56254479 134.5168385 -149.11258077 134.99679267 -151.6875 135.4375 C-157.2609583 136.43239784 -162.64676716 137.66816626 -168.0859375 139.25390625 C-172.99548392 140.51090808 -178.00665386 141.25860962 -183.0078125 142.05859375 C-186.14433897 142.67371927 -188.84370498 143.73178049 -191.74951172 145.05883789 C-192.54880096 145.42159317 -193.34809021 145.78434845 -194.17160034 146.15809631 C-195.07665817 146.57483864 -195.07665817 146.57483864 -196 147 C-196.15153581 154.68739692 -196.29624958 162.37490735 -196.4375 170.0625 C-196.45989746 171.27586029 -196.48229492 172.48922058 -196.50537109 173.73934937 C-196.82686048 191.40373783 -197.06829158 209.06804215 -197.25390625 226.734375 C-197.27484682 228.70002757 -197.29579715 230.66568004 -197.3167572 232.6313324 C-197.40998688 241.43486376 -197.50013267 250.23840014 -197.58051205 259.04205894 C-197.61519118 262.74952059 -197.65338083 266.45694094 -197.69231987 270.16436005 C-197.70966538 271.8945845 -197.72545034 273.62482545 -197.73951912 275.35507965 C-197.80686512 283.58897989 -197.9820585 291.7468213 -198.76043701 299.95057678 C-199.21148215 305.6919792 -199.27179276 311.45111732 -199.38442612 317.20732307 C-199.43096459 319.53657469 -199.48377629 321.86561055 -199.5383606 324.19468689 C-199.69309725 330.80855902 -199.8436743 337.42246444 -199.97412109 344.03686523 C-200.68471587 379.63760857 -200.68471587 379.63760857 -204 395 C-204.66 395 -205.32 395 -206 395 C-206.103125 395.86625 -206.20625 396.7325 -206.3125 397.625 C-208.6559502 409.12921005 -217.67064999 421.87380487 -226 430 C-226.86244747 431.0767526 -227.71660454 432.16019604 -228.5625 433.25 C-231.06652577 436.07505472 -231.57921508 436.29225139 -235 437 C-235.309375 437.61875 -235.61875 438.2375 -235.9375 438.875 C-239.44192925 445.8838585 -254.49879957 450.67094284 -261.71484375 453.41015625 C-279.02852234 458.65501654 -294.97596605 456.02289727 -312 451 C-312 450.34 -312 449.68 -312 449 C-312.845625 448.896875 -313.69125 448.79375 -314.5625 448.6875 C-318.41442701 447.9171146 -321.44075031 446.63725486 -325 445 C-325 444.34 -325 443.68 -325 443 C-325.53625 442.9175 -326.0725 442.835 -326.625 442.75 C-338.74392365 438.92297148 -347.13176638 426.44154989 -353.16015625 415.98828125 C-360.31789588 401.70001774 -360.75006895 384.037405 -356 369 C-352.87583591 361.87227749 -348.91898982 355.04333035 -344 349 C-343.34 349 -342.68 349 -342 349 C-341.773125 348.278125 -341.54625 347.55625 -341.3125 346.8125 C-338.80453975 341.43829945 -333.82320614 337.89821733 -329.3125 334.1875 C-328.35988281 333.39730469 -327.40726562 332.60710937 -326.42578125 331.79296875 C-324 330 -324 330 -322 330 C-322 329.34 -322 328.68 -322 328 C-312.43362374 320.72955404 -298.96415994 314.24139404 -287 313 C-285.98808594 312.88011719 -284.97617187 312.76023437 -283.93359375 312.63671875 C-271.63027201 311.49574031 -259.31320159 312.35547515 -247 313 C-246.1759358 310.11984621 -245.87950833 307.57972057 -245.89341736 304.58796692 C-245.89488455 303.70298082 -245.89635174 302.81799473 -245.89786339 301.90619087 C-245.90769469 300.4498615 -245.90769469 300.4498615 -245.91772461 298.96411133 C-245.92036127 297.92503569 -245.92299793 296.88596004 -245.92571449 295.81539726 C-245.93170878 293.52309633 -245.93981215 291.23080021 -245.94970894 288.9385128 C-245.97631573 282.4884932 -245.98360948 276.03844364 -245.99169922 269.58837891 C-245.99321769 268.5475276 -245.99321769 268.5475276 -245.99476683 267.48564899 C-246.02006031 249.32730257 -245.92271483 231.16969935 -245.81640625 213.01171875 C-245.81150665 212.17355574 -245.80660705 211.33539273 -245.80155897 210.47183084 C-245.74608907 201.03060238 -245.68765972 191.58939417 -245.62768555 182.14819336 C-245.57734135 174.2204616 -245.53170078 166.2927113 -245.48800808 158.36494035 C-245.4495087 151.42084034 -245.4075897 144.47676612 -245.36312145 137.53270179 C-245.3369933 133.44279123 -245.3121516 129.35288437 -245.29092598 125.26294518 C-245.13906101 96.43401632 -245.13906101 96.43401632 -244.54663086 84.26098633 C-244.50912248 83.48947833 -244.47161409 82.71797033 -244.43296909 81.92308331 C-244.12194416 76.45980666 -243.32599732 71.30398929 -242 66 C-241.34 66 -240.68 66 -240 66 C-239.835 65.319375 -239.67 64.63875 -239.5 63.9375 C-235.40955571 55.9270466 -227.14900085 51.9198043 -219 49 C-215.27013184 47.90804489 -211.54784937 46.91736872 -207.7734375 45.9921875 C-204.2482877 45.06528476 -200.84840957 43.96635519 -197.40087891 42.79394531 C-193.13710615 41.38396067 -188.81873721 40.16648563 -184.5 38.9375 C-183.61441406 38.68162109 -182.72882813 38.42574219 -181.81640625 38.16210938 C-176.91060218 36.76096563 -172.01223409 35.5044149 -167.01464844 34.47460938 C-164.86724817 33.96872642 -162.82890901 33.29835897 -160.75 32.5625 C-157.04205549 31.27249833 -153.33248691 30.3511686 -149.5 29.5 C-145.10891827 28.51858312 -140.90894379 27.38245307 -136.66796875 25.89453125 C-132.82706655 24.60673242 -128.94705767 23.4607604 -125.0625 22.3125 C-123.92409668 21.9724292 -123.92409668 21.9724292 -122.76269531 21.62548828 C-117.23977191 20 -117.23977191 20 -115 20 C-114.67 19.34 -114.34 18.68 -114 18 C-113.67 18.33 -113.34 18.66 -113 19 C-107.6519203 18.28373933 -102.54033955 16.555228 -97.46484375 14.7890625 C-93.62831733 13.56088764 -89.71743673 12.66400304 -85.796875 11.74609375 C-83.03157509 11.0772104 -83.03157509 11.0772104 -80.63671875 10.00390625 C-77.19151672 8.69217748 -73.68159574 8.1115835 -70.0625 7.5 C-66.34937233 6.86901098 -62.72752619 6.25183839 -59.15698242 5.01586914 C-55.94173507 3.98125123 -52.92084658 3.4283949 -49.578125 2.96484375 C-48.38832031 2.79533203 -47.19851563 2.62582031 -45.97265625 2.45117188 C-44.74417969 2.28166016 -43.51570313 2.11214844 -42.25 1.9375 C-39.79644378 1.59552766 -37.3432932 1.25062797 -34.890625 0.90234375 C-33.80813477 0.75273193 -32.72564453 0.60312012 -31.61035156 0.44897461 C-29.02755726 0.13424889 -29.02755726 0.13424889 -27 -1 C-17.79613079 -2.27438189 -8.88673294 -3.01514153 0 0 Z " fill="#FEFEFE" transform="translate(686,298)"/>
<path d="" fill="#FFFFFF" transform="translate(0,0)"/>
</svg>
